<svg width="16" height="16" viewBox="0 0 16 16" fill="none" xmlns="http://www.w3.org/2000/svg">
<rect width="16" height="16" rx="2" fill="white"/>
<path fill-rule="evenodd" clip-rule="evenodd" d="M2 3.9987C2 3.63051 2.29848 3.33203 2.66667 3.33203H13.3333C13.7015 3.33203 14 3.63051 14 3.9987C14 4.36689 13.7015 4.66536 13.3333 4.66536H2.66667C2.29848 4.66536 2 4.36689 2 3.9987ZM2 7.9987C2 7.63051 2.29848 7.33203 2.66667 7.33203H13.3333C13.7015 7.33203 14 7.63051 14 7.9987C14 8.36689 13.7015 8.66536 13.3333 8.66536H2.66667C2.29848 8.66536 2 8.36689 2 7.9987ZM2 11.9987C2 11.6305 2.29848 11.332 2.66667 11.332H13.3333C13.7015 11.332 14 11.6305 14 11.9987C14 12.3669 13.7015 12.6654 13.3333 12.6654H2.66667C2.29848 12.6654 2 12.3669 2 11.9987Z" fill="black"/>
</svg>
