<svg width="24" height="20" viewBox="0 0 24 20" fill="none" xmlns="http://www.w3.org/2000/svg">
<path fill-rule="evenodd" clip-rule="evenodd" d="M0 1.9974C0 1.26102 0.596954 0.664062 1.33333 0.664062H22.6667C23.403 0.664062 24 1.26102 24 1.9974C24 2.73378 23.403 3.33073 22.6667 3.33073H1.33333C0.596954 3.33073 0 2.73378 0 1.9974ZM0 9.9974C0 9.26102 0.596954 8.66406 1.33333 8.66406H22.6667C23.403 8.66406 24 9.26102 24 9.9974C24 10.7338 23.403 11.3307 22.6667 11.3307H1.33333C0.596954 11.3307 0 10.7338 0 9.9974ZM0 17.9974C0 17.261 0.596954 16.6641 1.33333 16.6641H22.6667C23.403 16.6641 24 17.261 24 17.9974C24 18.7338 23.403 19.3307 22.6667 19.3307H1.33333C0.596954 19.3307 0 18.7338 0 17.9974Z" fill="black"/>
</svg>
