<svg width="225" height="80" viewBox="0 0 225 80" fill="none" xmlns="http://www.w3.org/2000/svg">
<path d="M52.2607 49.8523H55.1591C55.9075 49.8523 56.4893 50.0308 56.9043 50.3878C57.3261 50.7448 57.537 51.2365 57.537 51.8629C57.537 52.4893 57.3261 52.9844 56.9043 53.3481C56.4825 53.7051 55.9007 53.8836 55.1591 53.8836H53.0976V57.046H52.2607V49.8523ZM55.0877 53.1966C55.6252 53.1966 56.03 53.0821 56.3022 52.853C56.5743 52.624 56.7104 52.294 56.7104 51.8629C56.7104 51.4318 56.5743 51.1051 56.3022 50.8829C56.03 50.6539 55.6252 50.5393 55.0877 50.5393H53.0976V53.1966H55.0877Z" fill="white"/>
<path d="M63.1555 57.1268C62.482 57.1268 61.8969 56.9786 61.4002 56.6822C60.9035 56.3859 60.5191 55.9615 60.2469 55.4092C59.9816 54.8502 59.8489 54.1968 59.8489 53.4491C59.8489 52.6948 59.9816 52.0414 60.2469 51.4891C60.5123 50.9367 60.8933 50.5124 61.39 50.216C61.8866 49.9197 62.4752 49.7715 63.1555 49.7715C63.8359 49.7715 64.4244 49.9197 64.9211 50.216C65.4178 50.5124 65.7988 50.9367 66.0641 51.4891C66.3295 52.0414 66.4622 52.6914 66.4622 53.439C66.4622 54.1934 66.3261 54.8468 66.0539 55.3991C65.7886 55.9514 65.4076 56.3791 64.9109 56.6822C64.4142 56.9786 63.8291 57.1268 63.1555 57.1268ZM63.1555 56.4196C63.9244 56.4196 64.5231 56.1602 64.9517 55.6416C65.3804 55.1229 65.5947 54.3888 65.5947 53.439C65.5947 52.4893 65.3804 51.7585 64.9517 51.2466C64.5299 50.7347 63.9312 50.4787 63.1555 50.4787C62.3799 50.4787 61.7778 50.738 61.3492 51.2567C60.9205 51.7686 60.7062 52.496 60.7062 53.439C60.7062 54.3888 60.9205 55.1229 61.3492 55.6416C61.7778 56.1602 62.3799 56.4196 63.1555 56.4196Z" fill="white"/>
<path d="M79.2174 49.8523L76.6762 57.046H75.9618L73.8901 51.1557L71.8081 57.046H71.1039L68.5525 49.8523H69.4098L71.4713 55.8639L73.5839 49.8523L74.2268 49.8624L76.3088 55.8841L78.3907 49.8523H79.2174Z" fill="white"/>
<path d="M81.7415 49.8523H86.334V50.5393H82.5681V53.045H86.1299V53.7421H82.5681V56.3589H86.334V57.046H81.7415V49.8523Z" fill="white"/>
<path d="M94.7217 57.046H93.8338L92.9357 54.6515C92.8269 54.3551 92.6738 54.1564 92.4765 54.0553C92.286 53.9543 92.0138 53.9038 91.66 53.9038H89.8434V57.046H89.0168V49.8523H91.9049C92.6874 49.8523 93.2861 50.0241 93.7011 50.3676C94.123 50.7111 94.3339 51.2062 94.3339 51.8528C94.3339 52.3243 94.208 52.7217 93.9563 53.045C93.7113 53.3616 93.3542 53.5872 92.8848 53.7219C93.0957 53.7556 93.2759 53.8465 93.4256 53.9947C93.5753 54.1362 93.7011 54.3416 93.8032 54.611L94.7217 57.046ZM91.8335 53.2168C92.9493 53.2168 93.5072 52.7655 93.5072 51.8629C93.5072 51.4183 93.3711 51.0883 93.099 50.8728C92.8269 50.6505 92.405 50.5393 91.8335 50.5393H89.8434V53.2168H91.8335Z" fill="white"/>
<path d="M97.3687 49.8523H101.961V50.5393H98.1954V53.045H101.757V53.7421H98.1954V56.3589H101.961V57.046H97.3687V49.8523Z" fill="white"/>
<path d="M104.644 49.8523H107.083C108.247 49.8523 109.145 50.1655 109.778 50.7919C110.417 51.4116 110.737 52.294 110.737 53.439C110.737 54.5908 110.417 55.4799 109.778 56.1064C109.145 56.7328 108.247 57.046 107.083 57.046H104.644V49.8523ZM107.032 56.3387C107.971 56.3387 108.675 56.0962 109.145 55.6113C109.621 55.1263 109.859 54.4022 109.859 53.439C109.859 51.5194 108.917 50.5596 107.032 50.5596H105.481V56.3387H107.032Z" fill="white"/>
<path d="M121.594 53.3481C122.009 53.4626 122.332 53.6714 122.564 53.9745C122.795 54.2709 122.911 54.6413 122.911 55.0859C122.911 55.7123 122.7 56.1973 122.278 56.5408C121.856 56.8776 121.261 57.046 120.492 57.046H117.471V49.8523H120.39C121.131 49.8523 121.706 50.0173 122.115 50.3474C122.53 50.6707 122.737 51.1321 122.737 51.7316C122.737 52.1155 122.635 52.4489 122.431 52.7318C122.234 53.008 121.955 53.2134 121.594 53.3481ZM118.298 53.045H120.257C120.801 53.045 121.213 52.9372 121.492 52.7217C121.771 52.5062 121.91 52.1896 121.91 51.772C121.91 50.9502 121.359 50.5393 120.257 50.5393H118.298V53.045ZM120.42 56.3589C120.992 56.3589 121.41 56.2545 121.676 56.0457C121.948 55.8302 122.084 55.5035 122.084 55.0657C122.084 54.1833 121.529 53.7421 120.42 53.7421H118.298V56.3589H120.42Z" fill="white"/>
<path d="M128.166 54.1362V57.046H127.329V54.1261L124.472 49.8523H125.452L127.758 53.3885L130.065 49.8523H131.024L128.166 54.1362Z" fill="white"/>
<path fill-rule="evenodd" clip-rule="evenodd" d="M45.859 0.958547C47.1371 2.23661 47.1371 4.30876 45.859 5.58682L38.3551 13.0907L45.859 20.5947C47.1371 21.8727 47.1371 23.9449 45.859 25.2229L36.041 35.041C34.7629 36.319 32.6908 36.319 31.4127 35.041C30.1346 33.7629 30.1346 31.6908 31.4127 30.4127L38.9166 22.9088L33.7268 17.719L16.4049 35.041C15.1268 36.319 13.0547 36.319 11.7766 35.041L1.95855 25.2229C0.680484 23.9449 0.680484 21.8727 1.95855 20.5947L11.7766 10.7766C13.0547 9.49854 15.1268 9.49854 16.4049 10.7766C17.6829 12.0547 17.6829 14.1268 16.4049 15.4049L8.90096 22.9088L14.0907 28.0986L41.2308 0.958547C42.5088 -0.319516 44.581 -0.319516 45.859 0.958547Z" fill="#C1C1C1"/>
<path fill-rule="evenodd" clip-rule="evenodd" d="M45.8587 0.958547C47.1368 2.23661 47.1368 4.30876 45.8587 5.58682L38.3548 13.0907L45.8587 20.5947C47.1368 21.8727 47.1368 23.9449 45.8587 25.2229L36.0407 35.041C34.7626 36.319 32.6905 36.319 31.4124 35.041C30.1343 33.7629 30.1343 31.6908 31.4124 30.4127L38.9163 22.9088L31.4124 15.4049C30.1343 14.1268 30.1343 12.0547 31.4124 10.7766L41.2305 0.958547C42.5085 -0.319516 44.5807 -0.319516 45.8587 0.958547Z" fill="white"/>
<path fill-rule="evenodd" clip-rule="evenodd" d="M16.4049 10.777C17.6829 12.055 17.6829 14.1272 16.4049 15.4053L8.90096 22.9092L16.4049 30.4131C17.6829 31.6912 17.6829 33.7633 16.4049 35.0414C15.1268 36.3194 13.0547 36.3194 11.7766 35.0414L1.95855 25.2233C0.680484 23.9453 0.680484 21.8731 1.95855 20.595L11.7766 10.777C13.0547 9.49892 15.1268 9.49892 16.4049 10.777Z" fill="white"/>
<path d="M61.6174 31.6029C60.0202 31.6029 58.5659 31.2283 57.2546 30.4789C55.9433 29.7296 54.913 28.6993 54.1636 27.388C53.4242 26.0767 53.0544 24.6175 53.0544 23.0104C53.0544 21.4033 53.4242 19.949 54.1636 18.6475C54.913 17.3362 55.9433 16.3108 57.2546 15.5714C58.5659 14.8221 60.0251 14.4474 61.6322 14.4474C63.6435 14.4474 65.3837 15.0143 66.8528 16.1482C68.3219 17.282 69.2832 18.7905 69.7367 20.6737H66.4091C65.9753 19.737 65.3344 19.0025 64.4865 18.4701C63.6386 17.9278 62.6822 17.6567 61.6174 17.6567C60.1484 17.6567 58.9208 18.1694 57.9349 19.1947C56.9588 20.2201 56.4708 21.492 56.4708 23.0104C56.4708 24.5287 56.9637 25.8055 57.9497 26.8408C58.9356 27.876 60.1582 28.3937 61.6174 28.3937C62.6921 28.3937 63.6435 28.1176 64.4717 27.5655C65.3098 27.0133 65.9507 26.2394 66.3943 25.2435H69.7811C69.3275 27.1563 68.3564 28.6944 66.8676 29.8578C65.3788 31.0212 63.6288 31.6029 61.6174 31.6029Z" fill="white"/>
<path d="M85.1027 30.4937C83.7717 31.2332 82.2829 31.6029 80.6364 31.6029C78.9899 31.6029 77.5011 31.2332 76.17 30.4937C74.839 29.7444 73.7939 28.719 73.0347 27.4176C72.2755 26.1063 71.8959 24.6421 71.8959 23.0252C71.8959 21.3983 72.2755 19.9342 73.0347 18.6328C73.7939 17.3214 74.839 16.296 76.17 15.5566C77.5011 14.8171 78.9899 14.4474 80.6364 14.4474C82.2829 14.4474 83.7717 14.8171 85.1027 15.5566C86.4338 16.296 87.4789 17.3214 88.2381 18.6328C88.9972 19.9441 89.3768 21.4082 89.3768 23.0252C89.3768 24.6421 88.9972 26.1063 88.2381 27.4176C87.4789 28.719 86.4338 29.7444 85.1027 30.4937ZM76.806 26.8852C77.8116 27.8908 79.0884 28.3937 80.6364 28.3937C82.1843 28.3937 83.4562 27.8908 84.452 26.8852C85.4577 25.8795 85.9605 24.5928 85.9605 23.0252C85.9605 21.4575 85.4577 20.1708 84.452 19.1652C83.4562 18.1595 82.1843 17.6567 80.6364 17.6567C79.0884 17.6567 77.8116 18.1595 76.806 19.1652C75.8102 20.1708 75.3123 21.4575 75.3123 23.0252C75.3123 24.5928 75.8102 25.8795 76.806 26.8852Z" fill="white"/>
<path d="M105.66 8.99016H109.017V31.2036H106.473L106.044 29.355C104.477 30.8635 102.554 31.6177 100.277 31.6177C97.8215 31.6177 95.7904 30.7994 94.1833 29.1627C92.5762 27.526 91.7727 25.4802 91.7727 23.0252C91.7727 20.5603 92.5713 18.5144 94.1685 16.8876C95.7756 15.2608 97.8116 14.4474 100.277 14.4474C102.347 14.4474 104.141 15.0833 105.66 16.3552V8.99016ZM96.7123 26.8704C97.718 27.8859 98.9898 28.3937 100.528 28.3937C102.066 28.3937 103.343 27.881 104.358 26.8556C105.384 25.8302 105.896 24.5534 105.896 23.0252C105.896 21.4969 105.384 20.2201 104.358 19.1947C103.343 18.1694 102.066 17.6567 100.528 17.6567C98.9898 17.6567 97.718 18.1694 96.7123 19.1947C95.7066 20.2103 95.2038 21.4871 95.2038 23.0252C95.2038 24.5632 95.7066 25.845 96.7123 26.8704Z" fill="white"/>
<path d="M129.367 23.0695C129.367 23.385 129.342 23.7498 129.293 24.1639H116.012C116.219 25.4851 116.771 26.5302 117.669 27.2993C118.566 28.0683 119.685 28.4528 121.026 28.4528C121.992 28.4528 122.855 28.2408 123.614 27.8169C124.383 27.3929 124.984 26.8063 125.418 26.057H128.968C128.317 27.7824 127.287 29.1381 125.877 30.124C124.467 31.11 122.85 31.6029 121.026 31.6029C118.64 31.6029 116.643 30.7846 115.036 29.1479C113.429 27.5014 112.626 25.4605 112.626 23.0252C112.626 21.4181 112.99 19.9589 113.72 18.6475C114.45 17.3362 115.455 16.3108 116.737 15.5714C118.019 14.8221 119.448 14.4474 121.026 14.4474C122.653 14.4474 124.107 14.8368 125.389 15.6157C126.67 16.3848 127.651 17.425 128.332 18.7363C129.022 20.0377 129.367 21.4821 129.367 23.0695ZM121.026 17.4792C119.774 17.4792 118.709 17.8341 117.831 18.544C116.954 19.2539 116.377 20.2201 116.101 21.4427H125.995C125.689 20.2004 125.093 19.2293 124.206 18.5292C123.328 17.8292 122.268 17.4792 121.026 17.4792Z" fill="white"/>
<path d="M139.541 31.5318C137.678 31.5318 136.184 31.093 135.06 30.2155C133.936 29.3282 133.32 28.1155 133.211 26.5774H134.661C134.769 27.7112 135.257 28.5937 136.125 29.2247C137.002 29.8458 138.156 30.1564 139.586 30.1564C141.015 30.1564 142.164 29.8557 143.031 29.2542C143.899 28.643 144.333 27.8246 144.333 26.7992C144.333 26.4936 144.298 26.2126 144.229 25.9562C144.16 25.69 144.047 25.4583 143.889 25.2611C143.741 25.0541 143.584 24.8717 143.416 24.7139C143.258 24.5562 143.041 24.4182 142.765 24.2998C142.499 24.1717 142.258 24.0632 142.041 23.9745C141.824 23.8857 141.538 23.8019 141.183 23.7231C140.828 23.6442 140.527 23.585 140.281 23.5456C140.044 23.4963 139.729 23.4371 139.334 23.3681C138.92 23.2991 138.605 23.2449 138.388 23.2054C138.171 23.166 137.865 23.1019 137.471 23.0132C137.076 22.9244 136.771 22.8456 136.554 22.7765C136.347 22.6977 136.081 22.5941 135.755 22.466C135.44 22.3279 135.188 22.1899 135.001 22.0519C134.823 21.904 134.626 21.7265 134.409 21.5195C134.192 21.3124 134.03 21.0906 133.921 20.8539C133.813 20.6075 133.719 20.3265 133.64 20.011C133.561 19.6955 133.522 19.3553 133.522 18.9905C133.522 17.6595 134.069 16.5848 135.164 15.7664C136.258 14.9382 137.688 14.5241 139.452 14.5241C141.227 14.5241 142.642 14.9481 143.697 15.796C144.762 16.6341 145.329 17.7827 145.398 19.2419H143.978C143.909 18.1771 143.475 17.3489 142.677 16.7573C141.878 16.1658 140.793 15.87 139.423 15.87C138.082 15.87 137.002 16.1559 136.184 16.7277C135.376 17.2897 134.971 18.0341 134.971 18.9609C134.971 19.3159 135.021 19.6363 135.119 19.9222C135.228 20.1983 135.405 20.4398 135.652 20.6469C135.898 20.8441 136.135 21.0068 136.362 21.1349C136.588 21.2631 136.924 21.3864 137.367 21.5047C137.811 21.6131 138.171 21.6969 138.447 21.7561C138.723 21.8054 139.137 21.8744 139.689 21.9631C140.458 22.0913 141.045 22.1998 141.449 22.2885C141.863 22.3674 142.391 22.5251 143.031 22.7618C143.682 22.9984 144.175 23.2695 144.51 23.5752C144.846 23.8808 145.146 24.3048 145.413 24.847C145.679 25.3893 145.812 26.0203 145.812 26.7401C145.812 28.1894 145.235 29.3528 144.082 30.2303C142.938 31.098 141.424 31.5318 139.541 31.5318Z" fill="#F5F5F5"/>
<path d="M156.031 29.8162H157.821V31.2064H155.869C154.271 31.2064 153.009 30.743 152.083 29.8162C151.166 28.8894 150.707 27.6176 150.707 26.0006V16.2101H147.986V15.87L151.905 11.9656H152.201V14.8495H157.688V16.2101H152.201V25.9562C152.201 27.1887 152.531 28.1401 153.192 28.8106C153.862 29.481 154.809 29.8162 156.031 29.8162Z" fill="#F5F5F5"/>
<path d="M173.32 29.5796C172.058 30.8811 170.357 31.5318 168.218 31.5318C166.078 31.5318 164.372 30.8811 163.101 29.5796C161.838 28.2683 161.207 26.5182 161.207 24.3294V14.8495H162.701V24.1224C162.701 25.9661 163.194 27.4253 164.18 28.5C165.176 29.5648 166.522 30.0972 168.218 30.0972C169.923 30.0972 171.269 29.5648 172.255 28.5C173.241 27.4253 173.734 25.9661 173.734 24.1224V14.8495H175.228V24.3294C175.228 26.5182 174.592 28.2683 173.32 29.5796Z" fill="#F5F5F5"/>
<path d="M194.557 9.05212H196.036V31.2064H194.853L194.631 27.7901C193.892 28.9535 192.911 29.8705 191.688 30.5409C190.466 31.2015 189.1 31.5318 187.592 31.5318C186.004 31.5318 184.57 31.1621 183.288 30.4226C182.016 29.6831 181.02 28.6676 180.3 27.376C179.581 26.0746 179.221 24.6252 179.221 23.028C179.221 21.4307 179.581 19.9863 180.3 18.6947C181.02 17.3933 182.016 16.3728 183.288 15.6333C184.57 14.8939 186.004 14.5241 187.592 14.5241C189.07 14.5241 190.411 14.8446 191.614 15.4854C192.827 16.1263 193.808 17.0137 194.557 18.1475V9.05212ZM187.695 30.0972C189.697 30.0972 191.353 29.4268 192.664 28.0859C193.985 26.745 194.646 25.059 194.646 23.028C194.646 20.9969 193.985 19.3109 192.664 17.97C191.353 16.6291 189.697 15.9587 187.695 15.9587C185.703 15.9587 184.042 16.6341 182.711 17.9848C181.39 19.3257 180.729 21.0068 180.729 23.028C180.729 25.0393 181.39 26.7203 182.711 28.0711C184.042 29.4219 185.703 30.0972 187.695 30.0972Z" fill="#F5F5F5"/>
<path d="M201.553 11.4776V9.37749H203.416V11.4776H201.553ZM201.745 31.2064V14.8495H203.224V31.2064H201.745Z" fill="#F5F5F5"/>
<path d="M216.09 31.5318C214.483 31.5318 213.024 31.167 211.713 30.4374C210.411 29.6979 209.386 28.6824 208.637 27.3908C207.897 26.0893 207.527 24.6351 207.527 23.028C207.527 20.5828 208.341 18.5567 209.968 16.9496C211.604 15.3326 213.645 14.5241 216.09 14.5241C218.536 14.5241 220.572 15.3326 222.198 16.9496C223.835 18.5665 224.653 20.5927 224.653 23.028C224.653 25.4633 223.835 27.4894 222.198 29.1063C220.572 30.7233 218.536 31.5318 216.09 31.5318ZM216.09 30.0972C218.121 30.0972 219.803 29.4268 221.134 28.0859C222.474 26.745 223.145 25.059 223.145 23.028C223.145 20.9969 222.474 19.3109 221.134 17.97C219.803 16.6291 218.121 15.9587 216.09 15.9587C214.059 15.9587 212.373 16.6291 211.032 17.97C209.701 19.3011 209.036 20.987 209.036 23.028C209.036 25.059 209.706 26.745 211.047 28.0859C212.388 29.4268 214.069 30.0972 216.09 30.0972Z" fill="#F5F5F5"/>
<path d="M166.675 59.6553C166.042 59.3056 165.553 58.8124 165.212 58.1749C164.87 57.5375 164.699 56.8002 164.699 55.9629C164.699 55.1337 164.87 54.402 165.212 53.7686C165.553 53.1351 166.041 52.6435 166.675 52.2939C167.309 51.9442 168.052 51.77 168.904 51.77C169.442 51.77 169.962 51.8506 170.465 52.0118C170.968 52.173 171.373 52.3921 171.68 52.6685L171.024 54.2005C170.355 53.7169 169.664 53.4745 168.95 53.4745C168.289 53.4745 167.782 53.684 167.429 54.1023C167.076 54.5212 166.899 55.141 166.899 55.9629C166.899 56.7922 167.076 57.4183 167.429 57.8406C167.782 58.2629 168.289 58.4741 168.95 58.4741C169.664 58.4741 170.355 58.2323 171.024 57.7481L171.68 59.2801C171.373 59.5565 170.968 59.7756 170.465 59.9368C169.962 60.098 169.442 60.1786 168.904 60.1786C168.052 60.1797 167.309 60.0049 166.675 59.6553Z" fill="white"/>
<path d="M175.033 59.6672C174.411 59.3255 173.933 58.8356 173.599 58.1982C173.264 57.5607 173.097 56.8155 173.097 55.9629C173.097 55.1104 173.266 54.3691 173.604 53.7396C173.942 53.1101 174.421 52.6242 175.039 52.2825C175.657 51.9408 176.384 51.77 177.222 51.77C178.059 51.77 178.787 51.9408 179.405 52.2825C180.023 52.6242 180.497 53.1101 180.828 53.7396C181.158 54.3696 181.323 55.1104 181.323 55.9629C181.323 56.8155 181.158 57.5607 180.828 58.1982C180.497 58.8356 180.023 59.3255 179.405 59.6672C178.787 60.0089 178.059 60.1797 177.222 60.1797C176.385 60.1797 175.655 60.0089 175.033 59.6672ZM178.668 57.8758C179.018 57.4381 179.192 56.8007 179.192 55.9635C179.192 55.1342 179.017 54.5024 178.668 54.0682C178.318 53.6346 177.836 53.4172 177.222 53.4172C176.608 53.4172 176.128 53.6323 175.782 54.0625C175.437 54.4928 175.264 55.1263 175.264 55.9635C175.264 56.8087 175.437 57.4478 175.782 57.8814C176.128 58.3157 176.608 58.5325 177.222 58.5325C177.836 58.5319 178.318 58.3134 178.668 57.8758Z" fill="white"/>
<path d="M183.281 51.874H186.634C187.54 51.874 188.321 52.0375 188.978 52.3639C189.635 52.6903 190.138 53.1608 190.487 53.775C190.837 54.3897 191.011 55.1191 191.011 55.9637C191.011 56.8162 190.839 57.5519 190.493 58.17C190.147 58.7881 189.646 59.2604 188.989 59.5868C188.333 59.9131 187.547 60.0766 186.633 60.0766H183.281V51.874ZM186.485 58.3488C187.283 58.3488 187.88 58.1513 188.276 57.7556C188.672 57.36 188.869 56.7629 188.869 55.9643C188.869 54.3897 188.074 53.6024 186.485 53.6024H185.448V58.3488H186.485Z" fill="white"/>
<path d="M192.971 51.874H195.137V60.0766H192.971V51.874Z" fill="white"/>
<path d="M204.641 51.874V60.0766H203.04L199.318 55.4222V60.0766H197.302V51.874H198.881L202.602 56.5052V51.874H204.641Z" fill="white"/>
<path d="M214.098 55.4447V59.5576C213.66 59.7574 213.17 59.9112 212.629 60.0185C212.087 60.1258 211.532 60.1797 210.964 60.1797C210.073 60.1797 209.299 60.0106 208.643 59.6728C207.986 59.3351 207.481 58.8492 207.128 58.2158C206.774 57.5823 206.597 56.8314 206.597 55.9635C206.597 55.1189 206.774 54.3793 207.128 53.7458C207.481 53.1124 207.98 52.6248 208.625 52.2825C209.27 51.9408 210.022 51.77 210.883 51.77C211.474 51.77 212.033 51.8466 212.559 52.0004C213.085 52.1542 213.513 52.3654 213.844 52.6339L213.164 54.1659C212.788 53.9201 212.425 53.7418 212.075 53.63C211.726 53.5188 211.352 53.4631 210.952 53.4631C210.222 53.4631 209.679 53.6686 209.322 54.0796C208.965 54.4905 208.786 55.1183 208.786 55.9629C208.786 56.8387 208.972 57.4875 209.345 57.9098C209.717 58.3321 210.291 58.5433 211.067 58.5433C211.428 58.5433 211.789 58.5047 212.15 58.4281V56.9074H210.721V55.4441H214.098V55.4447Z" fill="white"/>
<path d="M172.883 63.4749V72.2757H171.165L167.172 67.2818V72.2757H165.009V63.4749H166.702L170.695 68.4437V63.4749H172.883Z" fill="white"/>
<path d="M175.466 63.4743H177.79V72.2752H175.466V63.4743Z" fill="white"/>
<path d="M188.236 63.4743V72.2752H186.518L182.525 67.2813V72.2752H180.362V63.4743H182.055L186.048 68.4432V63.4743H188.236Z" fill="white"/>
<path d="M190.053 72.6339C190.465 72.6747 190.766 72.6958 190.955 72.6958C191.326 72.6958 191.574 72.6214 191.697 72.4732C191.821 72.3251 191.883 72.0407 191.883 71.6201V63.4743H194.207V71.5832C194.207 72.6214 193.997 73.3837 193.576 73.8701C193.156 74.356 192.435 74.5995 191.413 74.5995C191.009 74.5995 190.556 74.5626 190.053 74.4883V72.6339Z" fill="white"/>
<path d="M202.722 70.4592H198.816L198.037 72.2761H195.713L199.829 63.4753H201.659L205.788 72.2761H203.501L202.722 70.4592ZM201.968 68.716L200.769 65.9347L199.571 68.716H201.968Z" fill="white"/>
<path d="M208.383 72.1273C207.741 71.9542 207.217 71.7192 206.813 71.4229L207.543 69.7791C207.971 70.051 208.427 70.2593 208.909 70.4035C209.39 70.5477 209.875 70.6198 210.361 70.6198C210.855 70.6198 211.235 70.5517 211.499 70.416C211.762 70.2798 211.894 70.0885 211.894 69.841C211.894 69.6185 211.774 69.4352 211.535 69.291C211.296 69.1468 210.848 69.0049 210.188 68.8647C209.355 68.7001 208.709 68.4958 208.247 68.2528C207.786 68.0099 207.462 67.7232 207.277 67.394C207.091 67.0642 206.999 66.6646 206.999 66.1952C206.999 65.6594 207.151 65.1752 207.456 64.7427C207.761 64.3102 208.189 63.9725 208.742 63.729C209.293 63.486 209.924 63.3645 210.633 63.3645C211.268 63.3645 211.883 63.4531 212.481 63.6302C213.078 63.8073 213.546 64.04 213.884 64.3284L213.167 65.9722C212.78 65.7003 212.372 65.492 211.944 65.3478C211.515 65.2036 211.086 65.1315 210.658 65.1315C210.238 65.1315 209.9 65.2121 209.644 65.3728C209.389 65.5334 209.261 65.7497 209.261 66.0215C209.261 66.1697 209.306 66.2934 209.397 66.3922C209.488 66.491 209.657 66.588 209.904 66.6828C210.152 66.7776 210.522 66.8786 211.017 66.9859C211.816 67.159 212.444 67.3674 212.902 67.6103C213.359 67.8532 213.682 68.1376 213.872 68.4634C214.061 68.7892 214.156 69.1786 214.156 69.6316C214.156 70.4887 213.822 71.1624 213.155 71.6528C212.487 72.1432 211.548 72.3885 210.337 72.3885C209.678 72.3867 209.027 72.2999 208.383 72.1273Z" fill="white"/>
<path d="M149.585 57.2212H160.579V52.0531H149.603C147.85 51.9498 146.099 52.4141 144.604 53.3415C143.316 54.2174 142.337 55.4542 141.822 56.8971C141.255 58.5976 140.946 60.3499 140.997 62.1015C140.945 63.8537 141.255 65.657 141.822 67.3059C142.337 68.7488 143.316 69.9856 144.604 70.8615C146.099 71.7889 147.851 72.2527 149.603 72.15H160.579V66.4085H149.585C148.192 66.4085 147.211 65.9959 146.591 65.2217C145.972 64.4474 145.611 63.3122 145.611 61.8149C145.611 58.7696 146.901 57.2212 149.585 57.2212Z" fill="white"/>
<path fill-rule="evenodd" clip-rule="evenodd" d="M147.664 61.0135L152.818 61.9977C152.818 61.9983 149.038 65.9268 147.664 61.0135Z" fill="white"/>
<path fill-rule="evenodd" clip-rule="evenodd" d="M159.748 61.0306L154.752 62.0671C154.752 62.0677 159.079 65.9547 159.748 61.0306Z" fill="white"/>
</svg>
