<svg width="22" height="22" viewBox="0 0 22 22" fill="none" xmlns="http://www.w3.org/2000/svg">
<mask id="mask0_116_1183" style="mask-type:alpha" maskUnits="userSpaceOnUse" x="0" y="0" width="22" height="22">
<rect y="22" width="22" height="22" transform="rotate(-90 0 22)" fill="#D9D9D9"/>
</mask>
<g mask="url(#mask0_116_1183)">
<path d="M13.7042 11C13.7042 11.1222 13.6849 11.2368 13.6464 11.3437C13.6085 11.4507 13.5437 11.55 13.4521 11.6417L9.2125 15.8812C9.04444 16.0493 8.83422 16.1294 8.58183 16.1214C8.33005 16.1141 8.12014 16.0264 7.95208 15.8583C7.78403 15.6903 7.7 15.4764 7.7 15.2167C7.7 14.9569 7.78403 14.743 7.95208 14.575L11.5271 11L7.92916 7.40208C7.76111 7.23402 7.68075 7.0238 7.68808 6.77141C7.69603 6.51963 7.78403 6.30972 7.95208 6.14166C8.12014 5.97361 8.33403 5.88958 8.59375 5.88958C8.85347 5.88958 9.06736 5.97361 9.23542 6.14166L13.4521 10.3583C13.5437 10.45 13.6085 10.5493 13.6464 10.6562C13.6849 10.7632 13.7042 10.8778 13.7042 11Z" fill="#5A5B6A"/>
</g>
</svg>
