<svg width="136" height="41" viewBox="0 0 136 41" fill="none" xmlns="http://www.w3.org/2000/svg">
<g clip-path="url(#clip0_1_411)">
<path fill-rule="evenodd" clip-rule="evenodd" d="M130.988 40.8729H5.99189C3.23517 40.8729 0.990051 38.6186 0.990051 35.8729V5.87292C0.990051 3.11731 3.23517 0.872925 5.99189 0.872925H130.988C133.742 0.872925 135.99 3.11731 135.99 5.87292V35.8729C135.99 38.6186 133.742 40.8729 130.988 40.8729Z" fill="black"/>
<path d="M72.1088 14.1049C71.2073 14.1049 70.4473 13.7882 69.8463 13.1648C69.2503 12.5588 68.9175 11.7234 68.9324 10.8705C68.9324 9.96027 69.2403 9.1897 69.8463 8.57872C70.4449 7.95528 71.2048 7.63857 72.1063 7.63857C72.9979 7.63857 73.7579 7.95528 74.3688 8.57872C74.9748 9.20965 75.2828 9.98022 75.2828 10.8705C75.2729 11.7832 74.9649 12.5538 74.3688 13.1623C73.7703 13.7907 73.0104 14.1049 72.1088 14.1049ZM45.2842 14.1049C44.4025 14.1049 43.6376 13.7932 43.0117 13.1772C42.3908 12.5638 42.0754 11.7882 42.0754 10.873C42.0754 9.95778 42.3908 9.18221 43.0117 8.56875C43.6252 7.95279 44.3901 7.64107 45.2842 7.64107C45.7213 7.64107 46.146 7.72835 46.5533 7.90541C46.9531 8.07748 47.2784 8.31189 47.5193 8.59867L47.579 8.67099L46.9059 9.33433L46.8364 9.25204C46.4564 8.79817 45.9473 8.57623 45.2742 8.57623C44.6732 8.57623 44.1492 8.79069 43.7171 9.21463C43.2824 9.64107 43.0614 10.1997 43.0614 10.8755C43.0614 11.5513 43.2824 12.1099 43.7171 12.5363C44.1492 12.9603 44.6732 13.1747 45.2742 13.1747C45.915 13.1747 46.4539 12.9603 46.8736 12.5363C47.122 12.287 47.276 11.9378 47.3306 11.4964H45.1724V10.5638H48.257L48.2694 10.6485C48.2917 10.8057 48.3141 10.9678 48.3141 11.1174C48.3141 11.9777 48.0558 12.6735 47.5442 13.1872C46.963 13.7957 46.2031 14.1049 45.2842 14.1049ZM80.9502 13.9727H79.999L77.0858 9.29194L77.1107 10.1348V13.9702H76.1595V7.77324H77.2448L77.2746 7.82062L80.0139 12.2296L79.9891 11.3892V7.77324H80.9502V13.9727ZM64.9612 13.9727H63.9976V8.70591H62.3262V7.77324H66.6301V8.70591H64.9587V13.9727H64.9612ZM61.5414 13.9727H60.5803V7.77324H61.5414V13.9727ZM56.1397 13.9727H55.1786V8.70591H53.5072V7.77324H57.8111V8.70591H56.1397V13.9727ZM52.8987 13.9628H49.2131V7.77324H52.8987V8.70591H50.1767V10.4067H52.6329V11.3293H50.1767V13.0301H52.8987V13.9628ZM70.5517 12.5239C70.9813 12.9553 71.5028 13.1722 72.1088 13.1722C72.7322 13.1722 73.2413 12.9603 73.666 12.5239C74.0882 12.0999 74.3018 11.5438 74.3018 10.873C74.3018 10.2022 74.0882 9.64356 73.6685 9.22211C73.2388 8.79069 72.7148 8.57374 72.1113 8.57374C71.4879 8.57374 70.9788 8.78571 70.5566 9.22211C70.1344 9.64605 69.9208 10.2022 69.9208 10.873C69.9208 11.5438 70.1319 12.1024 70.5517 12.5239Z" fill="white"/>
<path fill-rule="evenodd" clip-rule="evenodd" d="M68.8424 22.6285C66.4955 22.6285 64.5931 24.4165 64.5931 26.8828C64.5931 29.3267 66.5079 31.1372 68.8424 31.1372C71.1894 31.1372 73.0918 29.3367 73.0918 26.8828C73.0918 24.4165 71.1894 22.6285 68.8424 22.6285ZM68.8424 29.4514C67.5584 29.4514 66.4533 28.3841 66.4533 26.8729C66.4533 25.3392 67.5609 24.2943 68.8424 24.2943C70.1264 24.2943 71.2316 25.3392 71.2316 26.8729C71.2341 28.3941 70.1264 29.4514 68.8424 29.4514ZM59.5714 22.6285C57.2245 22.6285 55.3221 24.4165 55.3221 26.8828C55.3221 29.3267 57.2369 31.1372 59.5714 31.1372C61.9183 31.1372 63.8207 29.3367 63.8207 26.8828C63.8207 24.4165 61.9159 22.6285 59.5714 22.6285ZM59.5714 29.4514C58.2874 29.4514 57.1822 28.3841 57.1822 26.8729C57.1822 25.3392 58.2899 24.2943 59.5714 24.2943C60.8554 24.2943 61.9606 25.3392 61.9606 26.8729C61.9606 28.3941 60.8554 29.4514 59.5714 29.4514ZM48.5395 23.9277V25.7282H52.8435C52.7119 26.7382 52.3791 27.4838 51.87 27.9951C51.2391 28.6285 50.2656 29.3167 48.5495 29.3167C45.9045 29.3167 43.8357 27.1721 43.8357 24.5162C43.8357 21.8604 45.9045 19.7158 48.5495 19.7158C49.9775 19.7158 51.0181 20.2818 51.7905 21.005L53.062 19.7282C51.9892 18.6958 50.5611 17.9053 48.5594 17.9053C44.931 17.9053 41.8861 20.8729 41.8861 24.5063C41.8861 28.1497 44.9285 31.1073 48.5594 31.1073C50.5189 31.1073 51.9892 30.4639 53.1515 29.2519C54.3361 28.0624 54.7111 26.3841 54.7111 25.03C54.7111 24.6085 54.6788 24.2295 54.6118 23.9078H48.537C48.5395 23.9053 48.5395 23.9277 48.5395 23.9277ZM93.6629 25.3292C93.3077 24.3741 92.2349 22.6185 90.0344 22.6185C87.8539 22.6185 86.0409 24.3417 86.0409 26.8729C86.0409 29.2619 87.834 31.1272 90.2455 31.1272C92.1827 31.1272 93.3102 29.9377 93.7746 29.2394L92.3367 28.2719C91.8598 28.9826 91.1967 29.4489 90.2555 29.4489C89.3043 29.4489 88.6387 29.015 88.1966 28.1596L93.8616 25.803C93.8616 25.8055 93.6629 25.3292 93.6629 25.3292ZM87.8862 26.7507C87.8415 25.1073 89.1578 24.2719 90.099 24.2719C90.8416 24.2719 91.46 24.6384 91.6711 25.1721L87.8862 26.7507ZM83.2842 30.8729H85.1444V18.3741H83.2842V30.8729ZM80.2294 23.5736H80.1624C79.7427 23.0724 78.9455 22.6185 77.9272 22.6185C75.8137 22.6185 73.8666 24.4863 73.8666 26.8853C73.8666 29.2744 75.8038 31.1197 77.9272 31.1197C78.933 31.1197 79.7427 30.6634 80.1624 30.1522H80.2294V30.7631C80.2294 32.3866 79.3652 33.2619 77.9719 33.2619C76.832 33.2619 76.1242 32.4389 75.8361 31.7507L74.2193 32.429C74.6837 33.5512 75.923 34.9402 77.9694 34.9402C80.15 34.9402 81.9977 33.6509 81.9977 30.5063V22.8729H80.2394V23.5736C80.2419 23.5736 80.2294 23.5736 80.2294 23.5736ZM78.0936 29.4514C76.8096 29.4514 75.7367 28.3741 75.7367 26.8853C75.7367 25.3841 76.8096 24.2968 78.0936 24.2968C79.3652 24.2968 80.3511 25.3965 80.3511 26.8853C80.3636 28.3741 79.3677 29.4514 78.0936 29.4514ZM102.373 18.3741H97.9246V30.8729H99.7848V26.1397H102.375C104.434 26.1397 106.458 24.6409 106.458 22.2619C106.458 19.8828 104.441 18.3741 102.373 18.3741ZM102.427 24.3941H99.7823V20.1048H102.427C103.821 20.1048 104.608 21.2594 104.608 22.2494C104.608 23.2295 103.811 24.3941 102.427 24.3941ZM113.914 22.606C112.563 22.606 111.169 23.207 110.593 24.5162L112.242 25.2045C112.597 24.5163 113.248 24.2818 113.936 24.2818C114.9 24.2818 115.873 24.8604 115.896 25.8928V26.025C115.563 25.8355 114.833 25.5462 113.958 25.5462C112.178 25.5462 110.372 26.5237 110.372 28.3566C110.372 30.035 111.832 31.1123 113.459 31.1123C114.708 31.1123 115.396 30.5462 115.826 29.8903H115.893V30.8579H117.686V26.0699C117.686 23.8404 116.037 22.606 113.914 22.606ZM113.68 29.4514C113.072 29.4514 112.22 29.1522 112.22 28.3841C112.22 27.4165 113.283 27.0499 114.189 27.0499C115.009 27.0499 115.396 27.227 115.883 27.4714C115.749 28.5936 114.805 29.4414 113.68 29.4514ZM124.228 22.8729L122.092 28.2943H122.025L119.812 22.8729H117.81L121.131 30.4514L119.238 34.6634H121.175L126.284 22.8729H124.228ZM107.484 30.8729H109.344V18.3741H107.484V30.8729Z" fill="white"/>
<path fill-rule="evenodd" clip-rule="evenodd" d="M11.3811 8.40644C11.093 8.71816 10.9266 9.19447 10.9266 9.81791V31.9301C10.9266 32.5536 11.093 33.0299 11.391 33.3291L11.468 33.3965L23.8062 21.0074V20.7306L11.4581 8.3391L11.3811 8.40644Z" fill="url(#paint0_linear_1_411)"/>
<path fill-rule="evenodd" clip-rule="evenodd" d="M27.9114 25.1492L23.7964 21.0173V20.728L27.9114 16.5961L28.0008 16.6509L32.8683 19.4288C34.2614 20.2168 34.2614 21.5185 32.8683 22.3164L28.0008 25.0943L27.9114 25.1492Z" fill="url(#paint1_linear_1_411)"/>
<path fill-rule="evenodd" clip-rule="evenodd" d="M28.0011 25.0949L23.7965 20.8729L11.3813 33.3393C11.8358 33.828 12.5982 33.8829 13.4501 33.4066L28.0011 25.0949Z" fill="url(#paint2_linear_1_411)"/>
<path fill-rule="evenodd" clip-rule="evenodd" d="M28.0011 16.6511L13.4501 8.3518C12.5982 7.86302 11.8333 7.93035 11.3813 8.41913L23.7965 20.873L28.0011 16.6511Z" fill="url(#paint3_linear_1_411)"/>
<path opacity="0.2" fill-rule="evenodd" clip-rule="evenodd" d="M27.9117 25.0052L13.4601 33.2496C12.6529 33.7159 11.9327 33.6835 11.4683 33.2595L11.3913 33.3368L11.4683 33.4042C11.9327 33.8256 12.6529 33.8605 13.4601 33.3942L28.0111 25.0949L27.9117 25.0052Z" fill="black"/>
<path opacity="0.12" fill-rule="evenodd" clip-rule="evenodd" d="M32.8683 22.1721L27.899 25.0049L27.9884 25.0946L32.8559 22.3167C33.5537 21.9178 33.8964 21.3941 33.8964 20.8729C33.8542 21.3517 33.4991 21.8055 32.8683 22.1721Z" fill="black"/>
<path opacity="0.25" fill-rule="evenodd" clip-rule="evenodd" d="M13.4499 8.49647L32.8686 19.5738C33.4995 19.9304 33.8546 20.3967 33.9092 20.873C33.9092 20.3518 33.5665 19.8281 32.8686 19.4291L13.4499 8.35183C12.0566 7.55133 10.9266 8.21966 10.9266 9.81817V9.96281C10.9266 8.36181 12.0566 7.70595 13.4499 8.49647Z" fill="white"/>
</g>
<defs>
<linearGradient id="paint0_linear_1_411" x1="22.6995" y1="9.57934" x2="2.9251" y2="14.8266" gradientUnits="userSpaceOnUse">
<stop stop-color="#00A0FF"/>
<stop offset="0.00657" stop-color="#00A1FF"/>
<stop offset="0.2601" stop-color="#00BEFF"/>
<stop offset="0.5122" stop-color="#00D2FF"/>
<stop offset="0.7604" stop-color="#00DFFF"/>
<stop offset="1" stop-color="#00E3FF"/>
</linearGradient>
<linearGradient id="paint1_linear_1_411" x1="34.6851" y1="20.8727" x2="10.5889" y2="20.8727" gradientUnits="userSpaceOnUse">
<stop stop-color="#FFE000"/>
<stop offset="0.4087" stop-color="#FFBD00"/>
<stop offset="0.7754" stop-color="#FFA500"/>
<stop offset="1" stop-color="#FF9C00"/>
</linearGradient>
<linearGradient id="paint2_linear_1_411" x1="25.7148" y1="23.1703" x2="9.75202" y2="49.9267" gradientUnits="userSpaceOnUse">
<stop stop-color="#FF3A44"/>
<stop offset="1" stop-color="#C31162"/>
</linearGradient>
<linearGradient id="paint3_linear_1_411" x1="8.255" y1="1.05179" x2="15.3767" y2="13.0017" gradientUnits="userSpaceOnUse">
<stop stop-color="#32A071"/>
<stop offset="0.0685" stop-color="#2DA771"/>
<stop offset="0.4762" stop-color="#15CF74"/>
<stop offset="0.8009" stop-color="#06E775"/>
<stop offset="1" stop-color="#00F076"/>
</linearGradient>
<clipPath id="clip0_1_411">
<rect width="135" height="40" fill="white" transform="translate(0.990051 0.872925)"/>
</clipPath>
</defs>
</svg>
