<svg width="1440" height="420" viewBox="0 0 1440 420" fill="none" xmlns="http://www.w3.org/2000/svg">
<path opacity="0.8" d="M0 0H1440V315.946L0 473V0Z" fill="url(#paint0_linear)"/>
<g opacity="0.7">
<ellipse cx="996.05" cy="79.5017" rx="1.05037" ry="1.05492" fill="#6200EE"/>
<ellipse cx="1095.84" cy="79.5017" rx="1.05037" ry="1.05492" fill="#6200EE"/>
<ellipse cx="1115.79" cy="79.5017" rx="1.05037" ry="1.05492" fill="#6200EE"/>
<ellipse cx="1035.96" cy="79.5017" rx="1.05037" ry="1.05492" fill="#6200EE"/>
<ellipse cx="1055.92" cy="79.5017" rx="1.05037" ry="1.05492" fill="#6200EE"/>
<ellipse cx="1075.88" cy="79.5017" rx="1.05037" ry="1.05492" fill="#6200EE"/>
<ellipse cx="1155.71" cy="79.5017" rx="1.05037" ry="1.05492" fill="#6200EE"/>
<ellipse cx="1235.53" cy="79.5017" rx="1.05036" ry="1.05492" fill="#6200EE"/>
<ellipse cx="1016.01" cy="79.5017" rx="1.05037" ry="1.05492" fill="#6200EE"/>
<ellipse cx="1175.66" cy="79.5017" rx="1.05036" ry="1.05492" fill="#6200EE"/>
<ellipse cx="1195.62" cy="79.5017" rx="1.05036" ry="1.05492" fill="#6200EE"/>
<ellipse cx="1135.75" cy="79.5017" rx="1.05037" ry="1.05492" fill="#6200EE"/>
<ellipse cx="1215.58" cy="79.5017" rx="1.05036" ry="1.05492" fill="#6200EE"/>
<ellipse cx="1255.49" cy="79.5017" rx="1.05037" ry="1.05492" fill="#6200EE"/>
<ellipse cx="1275.45" cy="79.5017" rx="1.05037" ry="1.05492" fill="#6200EE"/>
<ellipse cx="1295.4" cy="79.5017" rx="1.05035" ry="1.05492" fill="#6200EE"/>
<ellipse cx="996.05" cy="98.4906" rx="1.05037" ry="1.05492" fill="#6200EE"/>
<ellipse cx="1095.84" cy="98.4906" rx="1.05037" ry="1.05492" fill="#6200EE"/>
<ellipse cx="1115.79" cy="98.4906" rx="1.05037" ry="1.05492" fill="#6200EE"/>
<ellipse cx="1035.96" cy="98.4906" rx="1.05037" ry="1.05492" fill="#6200EE"/>
<ellipse cx="1055.92" cy="98.4906" rx="1.05037" ry="1.05492" fill="#6200EE"/>
<ellipse cx="1075.88" cy="98.4906" rx="1.05037" ry="1.05492" fill="#6200EE"/>
<ellipse cx="1155.71" cy="98.4906" rx="1.05037" ry="1.05492" fill="#6200EE"/>
<ellipse cx="1235.53" cy="98.4906" rx="1.05036" ry="1.05492" fill="#6200EE"/>
<ellipse cx="1016.01" cy="98.4906" rx="1.05037" ry="1.05492" fill="#6200EE"/>
<ellipse cx="1175.66" cy="98.4906" rx="1.05036" ry="1.05492" fill="#6200EE"/>
<ellipse cx="1195.62" cy="98.4906" rx="1.05036" ry="1.05492" fill="#6200EE"/>
<ellipse cx="1135.75" cy="98.4906" rx="1.05037" ry="1.05492" fill="#6200EE"/>
<ellipse cx="1215.58" cy="98.4906" rx="1.05036" ry="1.05492" fill="#6200EE"/>
<ellipse cx="1255.49" cy="98.4906" rx="1.05037" ry="1.05492" fill="#6200EE"/>
<ellipse cx="1275.45" cy="98.4906" rx="1.05037" ry="1.05492" fill="#6200EE"/>
<ellipse cx="1295.4" cy="98.4906" rx="1.05035" ry="1.05492" fill="#6200EE"/>
<ellipse cx="996.05" cy="117.479" rx="1.05037" ry="1.05492" fill="#6200EE"/>
<ellipse cx="1095.84" cy="117.479" rx="1.05037" ry="1.05492" fill="#6200EE"/>
<ellipse cx="1115.79" cy="117.479" rx="1.05037" ry="1.05492" fill="#6200EE"/>
<ellipse cx="1035.96" cy="117.479" rx="1.05037" ry="1.05492" fill="#6200EE"/>
<ellipse cx="1055.92" cy="117.479" rx="1.05037" ry="1.05492" fill="#6200EE"/>
<ellipse cx="1075.88" cy="117.479" rx="1.05037" ry="1.05492" fill="#6200EE"/>
<ellipse cx="1155.71" cy="117.479" rx="1.05037" ry="1.05492" fill="#6200EE"/>
<ellipse cx="1235.53" cy="117.479" rx="1.05036" ry="1.05492" fill="#6200EE"/>
<ellipse cx="1016.01" cy="117.479" rx="1.05037" ry="1.05492" fill="#6200EE"/>
<ellipse cx="1175.66" cy="117.479" rx="1.05036" ry="1.05492" fill="#6200EE"/>
<ellipse cx="1195.62" cy="117.479" rx="1.05036" ry="1.05492" fill="#6200EE"/>
<ellipse cx="1135.75" cy="117.479" rx="1.05037" ry="1.05492" fill="#6200EE"/>
<ellipse cx="1215.58" cy="117.479" rx="1.05036" ry="1.05492" fill="#6200EE"/>
<ellipse cx="1255.49" cy="117.479" rx="1.05037" ry="1.05492" fill="#6200EE"/>
<ellipse cx="1275.45" cy="117.479" rx="1.05037" ry="1.05492" fill="#6200EE"/>
<ellipse cx="1295.4" cy="117.479" rx="1.05035" ry="1.05492" fill="#6200EE"/>
<ellipse cx="996.05" cy="136.468" rx="1.05037" ry="1.05492" fill="#6200EE"/>
<ellipse cx="1095.84" cy="136.468" rx="1.05037" ry="1.05492" fill="#6200EE"/>
<ellipse cx="1115.79" cy="136.468" rx="1.05037" ry="1.05492" fill="#6200EE"/>
<ellipse cx="1035.96" cy="136.468" rx="1.05037" ry="1.05492" fill="#6200EE"/>
<ellipse cx="1055.92" cy="136.468" rx="1.05037" ry="1.05492" fill="#6200EE"/>
<ellipse cx="1075.88" cy="136.468" rx="1.05037" ry="1.05492" fill="#6200EE"/>
<ellipse cx="1155.71" cy="136.468" rx="1.05037" ry="1.05492" fill="#6200EE"/>
<ellipse cx="1235.53" cy="136.468" rx="1.05036" ry="1.05492" fill="#6200EE"/>
<ellipse cx="1016.01" cy="136.468" rx="1.05037" ry="1.05492" fill="#6200EE"/>
<ellipse cx="1175.66" cy="136.468" rx="1.05036" ry="1.05492" fill="#6200EE"/>
<ellipse cx="1195.62" cy="136.468" rx="1.05036" ry="1.05492" fill="#6200EE"/>
<ellipse cx="1135.75" cy="136.468" rx="1.05037" ry="1.05492" fill="#6200EE"/>
<ellipse cx="1215.58" cy="136.468" rx="1.05036" ry="1.05492" fill="#6200EE"/>
<ellipse cx="1255.49" cy="136.468" rx="1.05037" ry="1.05492" fill="#6200EE"/>
<ellipse cx="1275.45" cy="136.468" rx="1.05037" ry="1.05492" fill="#6200EE"/>
<ellipse cx="1295.4" cy="136.468" rx="1.05035" ry="1.05492" fill="#6200EE"/>
<ellipse cx="996.05" cy="155.455" rx="1.05037" ry="1.05492" fill="#6200EE"/>
<ellipse cx="1095.84" cy="155.455" rx="1.05037" ry="1.05492" fill="#6200EE"/>
<ellipse cx="1115.79" cy="155.455" rx="1.05037" ry="1.05492" fill="#6200EE"/>
<ellipse cx="1035.96" cy="155.455" rx="1.05037" ry="1.05492" fill="#6200EE"/>
<ellipse cx="1055.92" cy="155.455" rx="1.05037" ry="1.05492" fill="#6200EE"/>
<ellipse cx="1075.88" cy="155.455" rx="1.05037" ry="1.05492" fill="#6200EE"/>
<ellipse cx="1155.71" cy="155.455" rx="1.05037" ry="1.05492" fill="#6200EE"/>
<ellipse cx="1235.53" cy="155.455" rx="1.05036" ry="1.05492" fill="#6200EE"/>
<ellipse cx="1016.01" cy="155.455" rx="1.05037" ry="1.05492" fill="#6200EE"/>
<ellipse cx="1175.66" cy="155.455" rx="1.05036" ry="1.05492" fill="#6200EE"/>
<ellipse cx="1195.62" cy="155.455" rx="1.05036" ry="1.05492" fill="#6200EE"/>
<ellipse cx="1135.75" cy="155.455" rx="1.05037" ry="1.05492" fill="#6200EE"/>
<ellipse cx="1215.58" cy="155.455" rx="1.05036" ry="1.05492" fill="#6200EE"/>
<ellipse cx="1255.49" cy="155.455" rx="1.05037" ry="1.05492" fill="#6200EE"/>
<ellipse cx="1275.45" cy="155.455" rx="1.05037" ry="1.05492" fill="#6200EE"/>
<ellipse cx="1295.4" cy="155.455" rx="1.05035" ry="1.05492" fill="#6200EE"/>
<ellipse cx="996.05" cy="174.444" rx="1.05037" ry="1.05492" fill="#6200EE"/>
<ellipse cx="1095.84" cy="174.444" rx="1.05037" ry="1.05492" fill="#6200EE"/>
<ellipse cx="1115.79" cy="174.444" rx="1.05037" ry="1.05492" fill="#6200EE"/>
<ellipse cx="1035.96" cy="174.444" rx="1.05037" ry="1.05492" fill="#6200EE"/>
<ellipse cx="1055.92" cy="174.444" rx="1.05037" ry="1.05492" fill="#6200EE"/>
<ellipse cx="1075.88" cy="174.444" rx="1.05037" ry="1.05492" fill="#6200EE"/>
<ellipse cx="1155.71" cy="174.444" rx="1.05037" ry="1.05492" fill="#6200EE"/>
<ellipse cx="1235.53" cy="174.444" rx="1.05036" ry="1.05492" fill="#6200EE"/>
<ellipse cx="1016.01" cy="174.444" rx="1.05037" ry="1.05492" fill="#6200EE"/>
<ellipse cx="1175.66" cy="174.444" rx="1.05036" ry="1.05492" fill="#6200EE"/>
<ellipse cx="1195.62" cy="174.444" rx="1.05036" ry="1.05492" fill="#6200EE"/>
<ellipse cx="1135.75" cy="174.444" rx="1.05037" ry="1.05492" fill="#6200EE"/>
<ellipse cx="1215.58" cy="174.444" rx="1.05036" ry="1.05492" fill="#6200EE"/>
<ellipse cx="1255.49" cy="174.444" rx="1.05037" ry="1.05492" fill="#6200EE"/>
<ellipse cx="1275.45" cy="174.444" rx="1.05037" ry="1.05492" fill="#6200EE"/>
<ellipse cx="1295.4" cy="174.444" rx="1.05035" ry="1.05492" fill="#6200EE"/>
<ellipse cx="996.05" cy="193.43" rx="1.05037" ry="1.05492" fill="#6200EE"/>
<ellipse cx="1095.84" cy="193.43" rx="1.05037" ry="1.05492" fill="#6200EE"/>
<ellipse cx="1115.79" cy="193.43" rx="1.05037" ry="1.05492" fill="#6200EE"/>
<ellipse cx="1035.96" cy="193.43" rx="1.05037" ry="1.05492" fill="#6200EE"/>
<ellipse cx="1055.92" cy="193.43" rx="1.05037" ry="1.05492" fill="#6200EE"/>
<ellipse cx="1075.88" cy="193.43" rx="1.05037" ry="1.05492" fill="#6200EE"/>
<ellipse cx="1155.71" cy="193.43" rx="1.05037" ry="1.05492" fill="#6200EE"/>
<ellipse cx="1235.53" cy="193.43" rx="1.05036" ry="1.05492" fill="#6200EE"/>
<ellipse cx="1016.01" cy="193.43" rx="1.05037" ry="1.05492" fill="#6200EE"/>
<ellipse cx="1175.66" cy="193.43" rx="1.05036" ry="1.05492" fill="#6200EE"/>
<ellipse cx="1195.62" cy="193.43" rx="1.05036" ry="1.05492" fill="#6200EE"/>
<ellipse cx="1135.75" cy="193.43" rx="1.05037" ry="1.05492" fill="#6200EE"/>
<ellipse cx="1215.58" cy="193.43" rx="1.05036" ry="1.05492" fill="#6200EE"/>
<ellipse cx="1255.49" cy="193.43" rx="1.05037" ry="1.05492" fill="#6200EE"/>
<ellipse cx="1275.45" cy="193.43" rx="1.05037" ry="1.05492" fill="#6200EE"/>
<ellipse cx="1295.4" cy="193.43" rx="1.05035" ry="1.05492" fill="#6200EE"/>
<ellipse cx="996.05" cy="212.419" rx="1.05037" ry="1.05492" fill="#6200EE"/>
<ellipse cx="1095.84" cy="212.419" rx="1.05037" ry="1.05492" fill="#6200EE"/>
<ellipse cx="1115.79" cy="212.419" rx="1.05037" ry="1.05492" fill="#6200EE"/>
<ellipse cx="1035.96" cy="212.419" rx="1.05037" ry="1.05492" fill="#6200EE"/>
<ellipse cx="1055.92" cy="212.419" rx="1.05037" ry="1.05492" fill="#6200EE"/>
<ellipse cx="1075.88" cy="212.419" rx="1.05037" ry="1.05492" fill="#6200EE"/>
<ellipse cx="1155.71" cy="212.419" rx="1.05037" ry="1.05492" fill="#6200EE"/>
<ellipse cx="1235.53" cy="212.419" rx="1.05036" ry="1.05492" fill="#6200EE"/>
<ellipse cx="1016.01" cy="212.419" rx="1.05037" ry="1.05492" fill="#6200EE"/>
<ellipse cx="1175.66" cy="212.419" rx="1.05036" ry="1.05492" fill="#6200EE"/>
<ellipse cx="1195.62" cy="212.419" rx="1.05036" ry="1.05492" fill="#6200EE"/>
<ellipse cx="1135.75" cy="212.419" rx="1.05037" ry="1.05492" fill="#6200EE"/>
<ellipse cx="1215.58" cy="212.419" rx="1.05036" ry="1.05492" fill="#6200EE"/>
<ellipse cx="1255.49" cy="212.419" rx="1.05037" ry="1.05492" fill="#6200EE"/>
<ellipse cx="1275.45" cy="212.419" rx="1.05037" ry="1.05492" fill="#6200EE"/>
<ellipse cx="1295.4" cy="212.419" rx="1.05035" ry="1.05492" fill="#6200EE"/>
<ellipse cx="996.05" cy="231.407" rx="1.05037" ry="1.05492" fill="#6200EE"/>
<ellipse cx="1095.84" cy="231.407" rx="1.05037" ry="1.05492" fill="#6200EE"/>
<ellipse cx="1115.79" cy="231.407" rx="1.05037" ry="1.05492" fill="#6200EE"/>
<ellipse cx="1035.96" cy="231.407" rx="1.05037" ry="1.05492" fill="#6200EE"/>
<ellipse cx="1055.92" cy="231.407" rx="1.05037" ry="1.05492" fill="#6200EE"/>
<ellipse cx="1075.88" cy="231.407" rx="1.05037" ry="1.05492" fill="#6200EE"/>
<ellipse cx="1155.71" cy="231.407" rx="1.05037" ry="1.05492" fill="#6200EE"/>
<ellipse cx="1235.53" cy="231.407" rx="1.05036" ry="1.05492" fill="#6200EE"/>
<ellipse cx="1016.01" cy="231.407" rx="1.05037" ry="1.05492" fill="#6200EE"/>
<ellipse cx="1175.66" cy="231.407" rx="1.05036" ry="1.05492" fill="#6200EE"/>
<ellipse cx="1195.62" cy="231.407" rx="1.05036" ry="1.05492" fill="#6200EE"/>
<ellipse cx="1135.75" cy="231.407" rx="1.05037" ry="1.05492" fill="#6200EE"/>
<ellipse cx="1215.58" cy="231.407" rx="1.05036" ry="1.05492" fill="#6200EE"/>
<ellipse cx="1255.49" cy="231.407" rx="1.05037" ry="1.05492" fill="#6200EE"/>
<ellipse cx="1275.45" cy="231.407" rx="1.05037" ry="1.05492" fill="#6200EE"/>
<ellipse cx="1295.4" cy="231.407" rx="1.05035" ry="1.05492" fill="#6200EE"/>
<ellipse cx="996.05" cy="250.396" rx="1.05037" ry="1.05492" fill="#6200EE"/>
<ellipse cx="1095.84" cy="250.396" rx="1.05037" ry="1.05492" fill="#6200EE"/>
<ellipse cx="1115.79" cy="250.396" rx="1.05037" ry="1.05492" fill="#6200EE"/>
<ellipse cx="1035.96" cy="250.396" rx="1.05037" ry="1.05492" fill="#6200EE"/>
<ellipse cx="1055.92" cy="250.396" rx="1.05037" ry="1.05492" fill="#6200EE"/>
<ellipse cx="1075.88" cy="250.396" rx="1.05037" ry="1.05492" fill="#6200EE"/>
<ellipse cx="1155.71" cy="250.396" rx="1.05037" ry="1.05492" fill="#6200EE"/>
<ellipse cx="1235.53" cy="250.396" rx="1.05036" ry="1.05492" fill="#6200EE"/>
<ellipse cx="1016.01" cy="250.396" rx="1.05037" ry="1.05492" fill="#6200EE"/>
<ellipse cx="1175.66" cy="250.396" rx="1.05036" ry="1.05492" fill="#6200EE"/>
<ellipse cx="1195.62" cy="250.396" rx="1.05036" ry="1.05492" fill="#6200EE"/>
<ellipse cx="1135.75" cy="250.396" rx="1.05037" ry="1.05492" fill="#6200EE"/>
<ellipse cx="1215.58" cy="250.396" rx="1.05036" ry="1.05492" fill="#6200EE"/>
<ellipse cx="1255.49" cy="250.396" rx="1.05037" ry="1.05492" fill="#6200EE"/>
<ellipse cx="1275.45" cy="250.396" rx="1.05037" ry="1.05492" fill="#6200EE"/>
<ellipse cx="1295.4" cy="250.396" rx="1.05035" ry="1.05492" fill="#6200EE"/>
<ellipse cx="996.05" cy="269.384" rx="1.05037" ry="1.05492" fill="#6200EE"/>
<ellipse cx="1095.84" cy="269.384" rx="1.05037" ry="1.05492" fill="#6200EE"/>
<ellipse cx="1115.79" cy="269.384" rx="1.05037" ry="1.05492" fill="#6200EE"/>
<ellipse cx="1035.96" cy="269.384" rx="1.05037" ry="1.05492" fill="#6200EE"/>
<ellipse cx="1055.92" cy="269.384" rx="1.05037" ry="1.05492" fill="#6200EE"/>
<ellipse cx="1075.88" cy="269.384" rx="1.05037" ry="1.05492" fill="#6200EE"/>
<ellipse cx="1155.71" cy="269.384" rx="1.05037" ry="1.05492" fill="#6200EE"/>
<ellipse cx="1235.53" cy="269.384" rx="1.05036" ry="1.05492" fill="#6200EE"/>
<ellipse cx="1016.01" cy="269.384" rx="1.05037" ry="1.05492" fill="#6200EE"/>
<ellipse cx="1175.66" cy="269.384" rx="1.05036" ry="1.05492" fill="#6200EE"/>
<ellipse cx="1195.62" cy="269.384" rx="1.05036" ry="1.05492" fill="#6200EE"/>
<ellipse cx="1135.75" cy="269.384" rx="1.05037" ry="1.05492" fill="#6200EE"/>
<ellipse cx="1215.58" cy="269.384" rx="1.05036" ry="1.05492" fill="#6200EE"/>
<ellipse cx="1255.49" cy="269.384" rx="1.05037" ry="1.05492" fill="#6200EE"/>
<ellipse cx="1275.45" cy="269.384" rx="1.05037" ry="1.05492" fill="#6200EE"/>
<ellipse cx="1295.4" cy="269.384" rx="1.05035" ry="1.05492" fill="#6200EE"/>
<ellipse cx="996.05" cy="288.372" rx="1.05037" ry="1.05492" fill="#6200EE"/>
<ellipse cx="1095.84" cy="288.372" rx="1.05037" ry="1.05492" fill="#6200EE"/>
<ellipse cx="1115.79" cy="288.372" rx="1.05037" ry="1.05492" fill="#6200EE"/>
<ellipse cx="1035.96" cy="288.372" rx="1.05037" ry="1.05492" fill="#6200EE"/>
<ellipse cx="1055.92" cy="288.372" rx="1.05037" ry="1.05492" fill="#6200EE"/>
<ellipse cx="1075.88" cy="288.372" rx="1.05037" ry="1.05492" fill="#6200EE"/>
<ellipse cx="1155.71" cy="288.372" rx="1.05037" ry="1.05492" fill="#6200EE"/>
<ellipse cx="1235.53" cy="288.372" rx="1.05036" ry="1.05492" fill="#6200EE"/>
<ellipse cx="1016.01" cy="288.372" rx="1.05037" ry="1.05492" fill="#6200EE"/>
<ellipse cx="1175.66" cy="288.372" rx="1.05036" ry="1.05492" fill="#6200EE"/>
<ellipse cx="1195.62" cy="288.372" rx="1.05036" ry="1.05492" fill="#6200EE"/>
<ellipse cx="1135.75" cy="288.372" rx="1.05037" ry="1.05492" fill="#6200EE"/>
<ellipse cx="1215.58" cy="288.372" rx="1.05036" ry="1.05492" fill="#6200EE"/>
<ellipse cx="1255.49" cy="288.372" rx="1.05037" ry="1.05492" fill="#6200EE"/>
<ellipse cx="1275.45" cy="288.372" rx="1.05037" ry="1.05492" fill="#6200EE"/>
<ellipse cx="1295.4" cy="288.372" rx="1.05035" ry="1.05492" fill="#6200EE"/>
<ellipse cx="1310.9" cy="79.5043" rx="1.05301" ry="1.05758" fill="#6200EE"/>
<ellipse cx="1310.9" cy="98.4933" rx="1.05301" ry="1.05758" fill="#6200EE"/>
<ellipse cx="1310.9" cy="117.482" rx="1.05301" ry="1.05758" fill="#6200EE"/>
<ellipse cx="1310.9" cy="136.471" rx="1.05301" ry="1.05758" fill="#6200EE"/>
<ellipse cx="1310.9" cy="155.458" rx="1.05301" ry="1.05758" fill="#6200EE"/>
<ellipse cx="1310.9" cy="174.446" rx="1.05301" ry="1.05758" fill="#6200EE"/>
<ellipse cx="1310.9" cy="193.433" rx="1.05301" ry="1.05758" fill="#6200EE"/>
<ellipse cx="1310.9" cy="212.422" rx="1.05301" ry="1.05758" fill="#6200EE"/>
<ellipse cx="1310.9" cy="231.41" rx="1.05301" ry="1.05758" fill="#6200EE"/>
<ellipse cx="1310.9" cy="250.399" rx="1.05301" ry="1.05758" fill="#6200EE"/>
<ellipse cx="1310.9" cy="269.386" rx="1.05301" ry="1.05758" fill="#6200EE"/>
<ellipse cx="1310.9" cy="288.375" rx="1.05301" ry="1.05758" fill="#6200EE"/>
<ellipse cx="1329.86" cy="79.5043" rx="1.05301" ry="1.05758" fill="#6200EE"/>
<ellipse cx="1329.86" cy="98.4933" rx="1.05301" ry="1.05758" fill="#6200EE"/>
<ellipse cx="1329.86" cy="117.482" rx="1.05301" ry="1.05758" fill="#6200EE"/>
<ellipse cx="1329.86" cy="136.471" rx="1.05301" ry="1.05758" fill="#6200EE"/>
<ellipse cx="1329.86" cy="155.458" rx="1.05301" ry="1.05758" fill="#6200EE"/>
<ellipse cx="1329.86" cy="174.446" rx="1.05301" ry="1.05758" fill="#6200EE"/>
<ellipse cx="1329.86" cy="193.433" rx="1.05301" ry="1.05758" fill="#6200EE"/>
<ellipse cx="1329.86" cy="212.422" rx="1.05301" ry="1.05758" fill="#6200EE"/>
<ellipse cx="1329.86" cy="231.41" rx="1.05301" ry="1.05758" fill="#6200EE"/>
<ellipse cx="1329.86" cy="250.399" rx="1.05301" ry="1.05758" fill="#6200EE"/>
<ellipse cx="1329.86" cy="269.386" rx="1.05301" ry="1.05758" fill="#6200EE"/>
<ellipse cx="1329.86" cy="288.375" rx="1.05301" ry="1.05758" fill="#6200EE"/>
<ellipse cx="996.05" cy="307.362" rx="1.05037" ry="1.05492" fill="#6200EE"/>
<ellipse cx="1095.84" cy="307.362" rx="1.05037" ry="1.05492" fill="#6200EE"/>
<ellipse cx="1115.79" cy="307.362" rx="1.05037" ry="1.05492" fill="#6200EE"/>
<ellipse cx="1035.96" cy="307.362" rx="1.05037" ry="1.05492" fill="#6200EE"/>
<ellipse cx="1055.92" cy="307.362" rx="1.05037" ry="1.05492" fill="#6200EE"/>
<ellipse cx="1075.88" cy="307.362" rx="1.05037" ry="1.05492" fill="#6200EE"/>
<ellipse cx="1155.71" cy="307.362" rx="1.05037" ry="1.05492" fill="#6200EE"/>
<ellipse cx="1235.53" cy="307.362" rx="1.05036" ry="1.05492" fill="#6200EE"/>
<ellipse cx="1016.01" cy="307.362" rx="1.05037" ry="1.05492" fill="#6200EE"/>
<ellipse cx="1175.66" cy="307.362" rx="1.05036" ry="1.05492" fill="#6200EE"/>
<ellipse cx="1195.62" cy="307.362" rx="1.05036" ry="1.05492" fill="#6200EE"/>
<ellipse cx="1135.75" cy="307.362" rx="1.05037" ry="1.05492" fill="#6200EE"/>
<ellipse cx="1215.58" cy="307.362" rx="1.05036" ry="1.05492" fill="#6200EE"/>
<ellipse cx="1255.49" cy="307.362" rx="1.05037" ry="1.05492" fill="#6200EE"/>
<ellipse cx="1275.45" cy="307.362" rx="1.05037" ry="1.05492" fill="#6200EE"/>
<ellipse cx="1295.4" cy="307.362" rx="1.05035" ry="1.05492" fill="#6200EE"/>
<ellipse cx="996.05" cy="326.349" rx="1.05037" ry="1.05492" fill="#6200EE"/>
<ellipse cx="1095.84" cy="326.349" rx="1.05037" ry="1.05492" fill="#6200EE"/>
<ellipse cx="1115.79" cy="326.349" rx="1.05037" ry="1.05492" fill="#6200EE"/>
<ellipse cx="1035.96" cy="326.349" rx="1.05037" ry="1.05492" fill="#6200EE"/>
<ellipse cx="1055.92" cy="326.349" rx="1.05037" ry="1.05492" fill="#6200EE"/>
<ellipse cx="1075.88" cy="326.349" rx="1.05037" ry="1.05492" fill="#6200EE"/>
<ellipse cx="1155.71" cy="326.349" rx="1.05037" ry="1.05492" fill="#6200EE"/>
<ellipse cx="1235.53" cy="326.349" rx="1.05036" ry="1.05492" fill="#6200EE"/>
<ellipse cx="1016.01" cy="326.349" rx="1.05037" ry="1.05492" fill="#6200EE"/>
<ellipse cx="1175.66" cy="326.349" rx="1.05036" ry="1.05492" fill="#6200EE"/>
<ellipse cx="1195.62" cy="326.349" rx="1.05036" ry="1.05492" fill="#6200EE"/>
<ellipse cx="1135.75" cy="326.349" rx="1.05037" ry="1.05492" fill="#6200EE"/>
<ellipse cx="1215.58" cy="326.349" rx="1.05036" ry="1.05492" fill="#6200EE"/>
<ellipse cx="1255.49" cy="326.349" rx="1.05037" ry="1.05492" fill="#6200EE"/>
<ellipse cx="1275.45" cy="326.349" rx="1.05037" ry="1.05492" fill="#6200EE"/>
<ellipse cx="1295.4" cy="326.349" rx="1.05035" ry="1.05492" fill="#6200EE"/>
<ellipse cx="996.05" cy="345.338" rx="1.05037" ry="1.05492" fill="#6200EE"/>
<ellipse cx="1095.84" cy="345.338" rx="1.05037" ry="1.05492" fill="#6200EE"/>
<ellipse cx="1115.79" cy="345.338" rx="1.05037" ry="1.05492" fill="#6200EE"/>
<ellipse cx="1035.96" cy="345.338" rx="1.05037" ry="1.05492" fill="#6200EE"/>
<ellipse cx="1055.92" cy="345.338" rx="1.05037" ry="1.05492" fill="#6200EE"/>
<ellipse cx="1075.88" cy="345.338" rx="1.05037" ry="1.05492" fill="#6200EE"/>
<ellipse cx="1155.71" cy="345.338" rx="1.05037" ry="1.05492" fill="#6200EE"/>
<ellipse cx="1235.53" cy="345.338" rx="1.05036" ry="1.05492" fill="#6200EE"/>
<ellipse cx="1016.01" cy="345.338" rx="1.05037" ry="1.05492" fill="#6200EE"/>
<ellipse cx="1175.66" cy="345.338" rx="1.05036" ry="1.05492" fill="#6200EE"/>
<ellipse cx="1195.62" cy="345.338" rx="1.05036" ry="1.05492" fill="#6200EE"/>
<ellipse cx="1135.75" cy="345.338" rx="1.05037" ry="1.05492" fill="#6200EE"/>
<ellipse cx="1215.58" cy="345.338" rx="1.05036" ry="1.05492" fill="#6200EE"/>
<ellipse cx="1255.49" cy="345.338" rx="1.05037" ry="1.05492" fill="#6200EE"/>
<ellipse cx="1275.45" cy="345.338" rx="1.05037" ry="1.05492" fill="#6200EE"/>
<ellipse cx="1295.4" cy="345.338" rx="1.05035" ry="1.05492" fill="#6200EE"/>
<ellipse cx="996.05" cy="364.325" rx="1.05037" ry="1.05492" fill="#6200EE"/>
<ellipse cx="1095.84" cy="364.325" rx="1.05037" ry="1.05492" fill="#6200EE"/>
<ellipse cx="1115.79" cy="364.325" rx="1.05037" ry="1.05492" fill="#6200EE"/>
<ellipse cx="1035.96" cy="364.325" rx="1.05037" ry="1.05492" fill="#6200EE"/>
<ellipse cx="1055.92" cy="364.325" rx="1.05037" ry="1.05492" fill="#6200EE"/>
<ellipse cx="1075.88" cy="364.325" rx="1.05037" ry="1.05492" fill="#6200EE"/>
<ellipse cx="1155.71" cy="364.325" rx="1.05037" ry="1.05492" fill="#6200EE"/>
<ellipse cx="1235.53" cy="364.325" rx="1.05036" ry="1.05492" fill="#6200EE"/>
<ellipse cx="1016.01" cy="364.325" rx="1.05037" ry="1.05492" fill="#6200EE"/>
<ellipse cx="1175.66" cy="364.325" rx="1.05036" ry="1.05492" fill="#6200EE"/>
<ellipse cx="1195.62" cy="364.325" rx="1.05036" ry="1.05492" fill="#6200EE"/>
<ellipse cx="1135.75" cy="364.325" rx="1.05037" ry="1.05492" fill="#6200EE"/>
<ellipse cx="1215.58" cy="364.325" rx="1.05036" ry="1.05492" fill="#6200EE"/>
<ellipse cx="1255.49" cy="364.325" rx="1.05037" ry="1.05492" fill="#6200EE"/>
<ellipse cx="1275.45" cy="364.325" rx="1.05037" ry="1.05492" fill="#6200EE"/>
<ellipse cx="1295.4" cy="364.325" rx="1.05035" ry="1.05492" fill="#6200EE"/>
<ellipse cx="996.05" cy="383.314" rx="1.05037" ry="1.05492" fill="#6200EE"/>
<ellipse cx="1095.84" cy="383.314" rx="1.05037" ry="1.05492" fill="#6200EE"/>
<ellipse cx="1115.79" cy="383.314" rx="1.05037" ry="1.05492" fill="#6200EE"/>
<ellipse cx="1035.96" cy="383.314" rx="1.05037" ry="1.05492" fill="#6200EE"/>
<ellipse cx="1055.92" cy="383.314" rx="1.05037" ry="1.05492" fill="#6200EE"/>
<ellipse cx="1075.88" cy="383.314" rx="1.05037" ry="1.05492" fill="#6200EE"/>
<ellipse cx="1155.71" cy="383.314" rx="1.05037" ry="1.05492" fill="#6200EE"/>
<ellipse cx="1235.53" cy="383.314" rx="1.05036" ry="1.05492" fill="#6200EE"/>
<ellipse cx="1016.01" cy="383.314" rx="1.05037" ry="1.05492" fill="#6200EE"/>
<ellipse cx="1175.66" cy="383.314" rx="1.05036" ry="1.05492" fill="#6200EE"/>
<ellipse cx="1195.62" cy="383.314" rx="1.05036" ry="1.05492" fill="#6200EE"/>
<ellipse cx="1135.75" cy="383.314" rx="1.05037" ry="1.05492" fill="#6200EE"/>
<ellipse cx="1215.58" cy="383.314" rx="1.05036" ry="1.05492" fill="#6200EE"/>
<ellipse cx="1255.49" cy="383.314" rx="1.05037" ry="1.05492" fill="#6200EE"/>
<ellipse cx="1275.45" cy="383.314" rx="1.05037" ry="1.05492" fill="#6200EE"/>
<ellipse cx="1295.4" cy="383.314" rx="1.05035" ry="1.05492" fill="#6200EE"/>
<ellipse cx="996.05" cy="402.302" rx="1.05037" ry="1.05492" fill="#6200EE"/>
<ellipse cx="996.05" cy="421.291" rx="1.05037" ry="1.05492" fill="#6200EE"/>
<ellipse cx="1095.84" cy="402.302" rx="1.05037" ry="1.05492" fill="#6200EE"/>
<ellipse cx="1115.79" cy="402.302" rx="1.05037" ry="1.05492" fill="#6200EE"/>
<ellipse cx="1035.96" cy="402.302" rx="1.05037" ry="1.05492" fill="#6200EE"/>
<ellipse cx="1035.96" cy="421.291" rx="1.05037" ry="1.05492" fill="#6200EE"/>
<ellipse cx="1054.97" cy="421.291" rx="1.05582" ry="1.05492" fill="#6200EE"/>
<ellipse cx="1073.98" cy="421.291" rx="1.05582" ry="1.05492" fill="#6200EE"/>
<ellipse cx="1092.98" cy="421.291" rx="1.05582" ry="1.05492" fill="#6200EE"/>
<ellipse cx="1111.99" cy="421.291" rx="1.05582" ry="1.05492" fill="#6200EE"/>
<ellipse cx="1130.99" cy="421.291" rx="1.05582" ry="1.05492" fill="#6200EE"/>
<ellipse cx="1150" cy="421.291" rx="1.05582" ry="1.05492" fill="#6200EE"/>
<ellipse cx="1169" cy="421.291" rx="1.05582" ry="1.05492" fill="#6200EE"/>
<ellipse cx="1188.01" cy="421.291" rx="1.05582" ry="1.05492" fill="#6200EE"/>
<ellipse cx="1188.01" cy="421.291" rx="1.05582" ry="1.05492" fill="#6200EE"/>
<ellipse cx="1188.01" cy="421.291" rx="1.05582" ry="1.05492" fill="#6200EE"/>
<ellipse cx="1055.92" cy="402.302" rx="1.05037" ry="1.05492" fill="#6200EE"/>
<ellipse cx="1075.88" cy="402.302" rx="1.05037" ry="1.05492" fill="#6200EE"/>
<ellipse cx="1155.71" cy="402.302" rx="1.05037" ry="1.05492" fill="#6200EE"/>
<ellipse cx="1235.53" cy="402.302" rx="1.05036" ry="1.05492" fill="#6200EE"/>
<ellipse cx="1235.53" cy="421.291" rx="1.05036" ry="1.05492" fill="#6200EE"/>
<ellipse cx="1016.01" cy="402.302" rx="1.05037" ry="1.05492" fill="#6200EE"/>
<ellipse cx="1016.01" cy="421.291" rx="1.05037" ry="1.05492" fill="#6200EE"/>
<ellipse cx="1175.66" cy="402.302" rx="1.05036" ry="1.05492" fill="#6200EE"/>
<ellipse cx="1195.62" cy="402.302" rx="1.05036" ry="1.05492" fill="#6200EE"/>
<ellipse cx="1135.75" cy="402.302" rx="1.05037" ry="1.05492" fill="#6200EE"/>
<ellipse cx="1215.58" cy="402.302" rx="1.05036" ry="1.05492" fill="#6200EE"/>
<ellipse cx="1215.58" cy="421.291" rx="1.05036" ry="1.05492" fill="#6200EE"/>
<ellipse cx="1255.49" cy="402.302" rx="1.05037" ry="1.05492" fill="#6200EE"/>
<ellipse cx="1255.49" cy="421.291" rx="1.05037" ry="1.05492" fill="#6200EE"/>
<ellipse cx="1275.45" cy="402.302" rx="1.05037" ry="1.05492" fill="#6200EE"/>
<ellipse cx="1275.45" cy="421.291" rx="1.05037" ry="1.05492" fill="#6200EE"/>
<ellipse cx="1295.4" cy="402.302" rx="1.05035" ry="1.05492" fill="#6200EE"/>
<ellipse cx="1295.4" cy="421.291" rx="1.05035" ry="1.05492" fill="#6200EE"/>
<ellipse cx="1310.9" cy="307.364" rx="1.05301" ry="1.05758" fill="#6200EE"/>
<ellipse cx="1310.9" cy="326.351" rx="1.05301" ry="1.05758" fill="#6200EE"/>
<ellipse cx="1310.9" cy="345.341" rx="1.05301" ry="1.05758" fill="#6200EE"/>
<ellipse cx="1310.9" cy="364.328" rx="1.05301" ry="1.05758" fill="#6200EE"/>
<ellipse cx="1310.9" cy="383.316" rx="1.05301" ry="1.05758" fill="#6200EE"/>
<ellipse cx="1310.9" cy="402.305" rx="1.05301" ry="1.05758" fill="#6200EE"/>
<ellipse cx="1310.9" cy="421.294" rx="1.05301" ry="1.05758" fill="#6200EE"/>
<ellipse cx="1329.86" cy="307.364" rx="1.05301" ry="1.05758" fill="#6200EE"/>
<ellipse cx="1329.86" cy="326.351" rx="1.05301" ry="1.05758" fill="#6200EE"/>
<ellipse cx="1329.86" cy="345.341" rx="1.05301" ry="1.05758" fill="#6200EE"/>
<ellipse cx="1329.86" cy="364.328" rx="1.05301" ry="1.05758" fill="#6200EE"/>
<ellipse cx="1329.86" cy="383.316" rx="1.05301" ry="1.05758" fill="#6200EE"/>
<ellipse cx="1329.86" cy="402.305" rx="1.05301" ry="1.05758" fill="#6200EE"/>
<ellipse cx="1329.86" cy="421.294" rx="1.05301" ry="1.05758" fill="#6200EE"/>
</g>
<defs>
<linearGradient id="paint0_linear" x1="0" y1="236.5" x2="1440" y2="236.5" gradientUnits="userSpaceOnUse">
<stop stop-color="#4051D4"/>
<stop offset="1" stop-color="#975BD2"/>
</linearGradient>
</defs>
</svg>
