<svg width="20" height="20" viewBox="0 0 20 20" fill="none" xmlns="http://www.w3.org/2000/svg">
<path d="M2.50014 10.8334H3.33346V16.6667C3.33346 17.5859 4.08096 18.3334 5.00011 18.3334H15C15.9192 18.3334 16.6667 17.5859 16.6667 16.6667V10.8334H17.5C17.6648 10.8334 17.8259 10.7845 17.9629 10.6929C18.0999 10.6014 18.2067 10.4712 18.2697 10.319C18.3328 10.1667 18.3493 9.99921 18.3171 9.83758C18.285 9.67596 18.2057 9.52749 18.0892 9.41094L10.5892 1.91102C10.5119 1.83356 10.4201 1.77212 10.319 1.73019C10.2179 1.68827 10.1095 1.66669 10.0001 1.66669C9.89062 1.66669 9.78225 1.68827 9.68116 1.73019C9.58006 1.77212 9.48823 1.83356 9.4109 1.91102L1.91098 9.41094C1.79447 9.52749 1.71513 9.67596 1.68299 9.83758C1.65086 9.99921 1.66736 10.1667 1.73042 10.319C1.79347 10.4712 1.90026 10.6014 2.03726 10.6929C2.17427 10.7845 2.33535 10.8334 2.50014 10.8334ZM8.33342 18.3334V12.5001H11.6667V18.3334H8.33342Z" fill="#5A5B6A"/>
</svg>
