<svg width="24" height="24" viewBox="0 0 24 24" fill="none" xmlns="http://www.w3.org/2000/svg">
<circle cx="12" cy="12" r="12" fill="#D2F7F2"/>
<g clip-path="url(#clip0_440_51448)">
<path d="M12.0117 15.2934C12.6589 15.2934 13.1836 14.7687 13.1836 14.1215C13.1836 13.4744 12.6589 12.9497 12.0117 12.9497C11.3645 12.9497 10.8398 13.4744 10.8398 14.1215C10.8398 14.7687 11.3645 15.2934 12.0117 15.2934Z" fill="#0BB09F"/>
<path d="M17.6484 6H6.35156C6.15741 6 6 6.15738 6 6.35154V14.7886C6 14.9828 6.15741 15.1402 6.35156 15.1402H10.4389C9.63295 13.9003 10.527 12.2465 12.0117 12.2465C13.4965 12.2465 14.3905 13.9003 13.5846 15.1402H17.6484C17.8426 15.1402 18 14.9828 18 14.7886V6.35154C18 6.15738 17.8426 6 17.6484 6V6ZM10.5938 7.42962H13.4062C13.6004 7.42962 13.7578 7.587 13.7578 7.78116C13.7578 7.97531 13.6004 8.1327 13.4062 8.1327H10.5938C10.3996 8.1327 10.2422 7.97531 10.2422 7.78116C10.2422 7.587 10.3996 7.42962 10.5938 7.42962ZM15.5156 11.6482H8.48438C8.29022 11.6482 8.13281 11.4908 8.13281 11.2966C8.13281 11.1025 8.29022 10.9451 8.48438 10.9451H15.5156C15.7098 10.9451 15.8672 11.1025 15.8672 11.2966C15.8672 11.4908 15.7098 11.6482 15.5156 11.6482ZM15.5156 10.242H8.48438C8.29022 10.242 8.13281 10.0846 8.13281 9.89044C8.13281 9.69628 8.29022 9.5389 8.48438 9.5389H15.5156C15.7098 9.5389 15.8672 9.69628 15.8672 9.89044C15.8672 10.0846 15.7098 10.242 15.5156 10.242Z" fill="#0BB09F"/>
<path d="M10.6113 15.3664V17.6479C10.6113 17.9267 10.9226 18.0964 11.1571 17.9409L12.0235 17.3666L12.8898 17.9409C13.1208 18.0941 13.4356 17.9299 13.4356 17.6479V15.3394C12.6949 16.2039 11.369 16.2177 10.6113 15.3664Z" fill="#0BB09F"/>
</g>
<defs>
<clipPath id="clip0_440_51448">
<rect width="12" height="12" fill="white" transform="translate(6 6)"/>
</clipPath>
</defs>
</svg>
