<svg width="24" height="24" viewBox="0 0 24 24" fill="none" xmlns="http://www.w3.org/2000/svg">
<circle cx="12" cy="12" r="12" fill="#D2F7F2"/>
<g clip-path="url(#clip0_440_51457)">
<path d="M12 5C8.14007 5 5 8.14007 5 12C5 15.8599 8.14007 19 12 19C15.8599 19 19 15.8599 19 12C19 8.14007 15.8599 5 12 5ZM12.1833 12C12.2 12.2 12.2 12.2 12 12.1833H9.66668C9.3441 12.1833 9 12.1226 9 11.8C9 11.4774 9.3441 11.4167 9.66668 11.4167H11.4167V7.91668C11.4167 7.5941 11.4774 7.4 11.8 7.4C12.1226 7.4 12.1833 7.5941 12.1833 7.91668V9.95834V12Z" fill="#0BB09F"/>
</g>
<defs>
<clipPath id="clip0_440_51457">
<rect width="14" height="14" fill="white" transform="translate(5 5)"/>
</clipPath>
</defs>
</svg>
