<svg width="80" height="80" viewBox="0 0 80 80" fill="none" xmlns="http://www.w3.org/2000/svg">
<path fill-rule="evenodd" clip-rule="evenodd" d="M40.0219 55.9075C43.2033 55.9075 45.7823 53.3811 45.7823 50.2646C45.7823 47.1329 43.1901 44.6218 40.0219 44.6218C36.8405 44.6218 34.2615 47.1482 34.2615 50.2646C34.2615 53.3811 36.8405 55.9075 40.0219 55.9075ZM57.3031 30.5146C60.4845 30.5146 63.0636 33.041 63.0636 36.1575V64.3718C63.0636 67.4883 60.4845 70.0146 57.3031 70.0146H22.7406C19.5593 70.0146 16.9802 67.4883 16.9802 64.3718V36.1575C16.9802 33.0257 19.5724 30.5146 22.7406 30.5146H25.6208V24.8718C25.6208 17.0806 32.0684 10.7646 40.0219 10.7646C43.8413 10.7646 47.5042 12.2509 50.205 14.8965C52.9057 17.5421 54.4229 21.1303 54.4229 24.8718V30.5146H57.3031ZM40.0219 16.4075C35.2498 16.4075 31.3813 20.1971 31.3813 24.8718V30.5146H48.6625V24.8718C48.6625 20.1971 44.794 16.4075 40.0219 16.4075Z" fill="#757575"/>
</svg>
