<svg width="24" height="24" viewBox="0 0 24 24" fill="none" xmlns="http://www.w3.org/2000/svg">
<circle cx="12" cy="12" r="12" fill="#D2F7F2"/>
<g clip-path="url(#clip0_440_51465)">
<path d="M17.5879 15.4026V12.417H14.1669L12.4102 10.6603V8.64454H15.2344V5H8.76562V8.64454H11.5898V10.6603L9.83309 12.417H6.41211V15.3555H5V19H8.64454V15.3555H7.23243V13.2374H9.83309L12 15.4043L14.1669 13.2374H16.7676V15.4026C15.9597 15.5892 15.3554 16.314 15.3554 17.1777C15.3554 18.1825 16.1729 19 17.1777 19C18.1826 19 19 18.1825 19 17.1777C19 16.314 18.3958 15.5892 17.5879 15.4026Z" fill="#0BB09F"/>
</g>
<defs>
<clipPath id="clip0_440_51465">
<rect width="14" height="14" fill="white" transform="translate(5 5)"/>
</clipPath>
</defs>
</svg>
