<svg width="89" height="22" viewBox="0 0 89 22" fill="none" xmlns="http://www.w3.org/2000/svg">
<rect width="89" height="22" rx="4" fill="#E0E0E0"/>
<path d="M13.478 6.032V16H12.134L6.758 9.014V16H5.078V6.032H6.422L11.784 13.004V6.032H13.478ZM18.7264 16.112C18.0077 16.112 17.373 15.9627 16.8224 15.664C16.281 15.3653 15.861 14.9407 15.5624 14.39C15.273 13.83 15.1284 13.1767 15.1284 12.43C15.1284 11.6833 15.273 11.0347 15.5624 10.484C15.861 9.924 16.281 9.49467 16.8224 9.196C17.373 8.89733 18.0077 8.748 18.7264 8.748C19.4357 8.748 20.061 8.89733 20.6024 9.196C21.1437 9.49467 21.559 9.924 21.8484 10.484C22.147 11.0347 22.2964 11.6833 22.2964 12.43C22.2964 13.1767 22.147 13.83 21.8484 14.39C21.559 14.9407 21.1437 15.3653 20.6024 15.664C20.061 15.9627 19.4357 16.112 18.7264 16.112ZM18.7124 14.74C19.3097 14.74 19.7624 14.5487 20.0704 14.166C20.3877 13.774 20.5464 13.1953 20.5464 12.43C20.5464 11.674 20.3877 11.1 20.0704 10.708C19.753 10.3067 19.305 10.106 18.7264 10.106C18.1384 10.106 17.6857 10.3067 17.3684 10.708C17.051 11.1 16.8924 11.674 16.8924 12.43C16.8924 13.1953 17.0464 13.774 17.3544 14.166C17.6717 14.5487 18.1244 14.74 18.7124 14.74ZM32.2953 16.126C31.3153 16.126 30.4566 15.916 29.7193 15.496C28.9913 15.076 28.4313 14.4833 28.0393 13.718C27.6473 12.9433 27.4513 12.038 27.4513 11.002C27.4513 9.97533 27.6473 9.07933 28.0393 8.314C28.4313 7.53933 28.9913 6.94667 29.7193 6.536C30.4566 6.116 31.3153 5.906 32.2953 5.906C32.9673 5.906 33.5973 6.01333 34.1853 6.228C34.7826 6.43333 35.2773 6.72267 35.6693 7.096L35.0813 8.412C34.6333 8.048 34.1853 7.78667 33.7373 7.628C33.2986 7.46 32.8273 7.376 32.3233 7.376C31.362 7.376 30.6153 7.68867 30.0833 8.314C29.5606 8.93933 29.2993 9.83533 29.2993 11.002C29.2993 12.178 29.5606 13.0833 30.0833 13.718C30.606 14.3433 31.3526 14.656 32.3233 14.656C32.8273 14.656 33.2986 14.5767 33.7373 14.418C34.1853 14.25 34.6333 13.984 35.0813 13.62L35.6693 14.936C35.2773 15.3093 34.7826 15.6033 34.1853 15.818C33.5973 16.0233 32.9673 16.126 32.2953 16.126ZM40.3006 16.112C39.5819 16.112 38.9472 15.9627 38.3966 15.664C37.8552 15.3653 37.4352 14.9407 37.1366 14.39C36.8472 13.83 36.7026 13.1767 36.7026 12.43C36.7026 11.6833 36.8472 11.0347 37.1366 10.484C37.4352 9.924 37.8552 9.49467 38.3966 9.196C38.9472 8.89733 39.5819 8.748 40.3006 8.748C41.0099 8.748 41.6352 8.89733 42.1766 9.196C42.7179 9.49467 43.1332 9.924 43.4226 10.484C43.7212 11.0347 43.8706 11.6833 43.8706 12.43C43.8706 13.1767 43.7212 13.83 43.4226 14.39C43.1332 14.9407 42.7179 15.3653 42.1766 15.664C41.6352 15.9627 41.0099 16.112 40.3006 16.112ZM40.2866 14.74C40.8839 14.74 41.3366 14.5487 41.6446 14.166C41.9619 13.774 42.1206 13.1953 42.1206 12.43C42.1206 11.674 41.9619 11.1 41.6446 10.708C41.3272 10.3067 40.8792 10.106 40.3006 10.106C39.7126 10.106 39.2599 10.3067 38.9426 10.708C38.6252 11.1 38.4666 11.674 38.4666 12.43C38.4666 13.1953 38.6206 13.774 38.9286 14.166C39.2459 14.5487 39.6986 14.74 40.2866 14.74ZM47.9697 16.112C46.6911 16.112 45.6737 15.8133 44.9177 15.216L45.4077 13.984C46.1637 14.544 47.0271 14.824 47.9977 14.824C48.4177 14.824 48.7397 14.754 48.9637 14.614C49.1971 14.474 49.3137 14.278 49.3137 14.026C49.3137 13.8113 49.2344 13.6433 49.0757 13.522C48.9171 13.3913 48.6464 13.2793 48.2637 13.186L47.0877 12.92C45.7997 12.64 45.1557 11.982 45.1557 10.946C45.1557 10.5167 45.2771 10.1387 45.5197 9.812C45.7624 9.476 46.1031 9.21467 46.5417 9.028C46.9804 8.84133 47.4891 8.748 48.0677 8.748C48.5717 8.748 49.0571 8.82733 49.5237 8.986C49.9904 9.13533 50.4011 9.35467 50.7557 9.644L50.2377 10.834C49.5284 10.3113 48.8004 10.05 48.0537 10.05C47.6524 10.05 47.3397 10.1247 47.1157 10.274C46.8917 10.4233 46.7797 10.6287 46.7797 10.89C46.7797 11.0953 46.8451 11.2587 46.9757 11.38C47.1157 11.5013 47.3491 11.604 47.6757 11.688L48.8797 11.954C49.5797 12.1127 50.0884 12.36 50.4057 12.696C50.7324 13.0227 50.8957 13.452 50.8957 13.984C50.8957 14.6373 50.6344 15.1553 50.1117 15.538C49.5891 15.9207 48.8751 16.112 47.9697 16.112ZM54.551 10.246V13.41C54.551 14.2407 54.9384 14.656 55.713 14.656C55.9277 14.656 56.161 14.6187 56.413 14.544V15.93C56.105 16.042 55.7317 16.098 55.293 16.098C54.4904 16.098 53.8744 15.874 53.445 15.426C53.0157 14.978 52.801 14.334 52.801 13.494V10.246H51.443V8.93H52.801V7.208L54.551 6.62V8.93H56.427V10.246H54.551ZM61.5975 6.032H68.2615V7.46H63.3615V10.218H67.9675V11.646H63.3615V14.572H68.2615V16H61.5975V6.032ZM79.6397 6.032V16H78.0437V9.812L75.3977 16H74.2077L71.5477 9.882V16H69.9517V6.032H71.3797L74.8097 13.83L78.2117 6.032H79.6397ZM81.8182 6.032H83.6242V16H81.8182V6.032Z" fill="#757575"/>
</svg>
