<svg width="24" height="24" viewBox="0 0 24 24" fill="none" xmlns="http://www.w3.org/2000/svg">
  <path fill-rule="evenodd" clip-rule="evenodd" d="M3.50214 20.4388C2.77248 20.4384 2.18255 19.8857 2.18213 19.2022V6.3383C2.18255 5.65484 2.77248 5.10196 3.50214 5.10156H10.5792L8.69317 6.86861H4.06756V18.6719L16.1069 18.6723V16.2988L17.9928 14.5317L17.9923 19.2022C17.9917 19.8853 17.402 20.4384 16.6725 20.4391L3.50214 20.4388Z" fill="#F5F5F5"/>
  <path fill-rule="evenodd" clip-rule="evenodd" d="M16.0446 4.94539V2.72656L21.3229 7.67349C21.7828 8.1045 21.7828 8.83443 21.3229 9.26544L16.0184 14.2369V11.9299C16.0184 11.9299 12.9627 11.3617 9.82097 13.1979C8.10125 14.1961 6.94003 15.5094 6.22461 16.5439C6.22461 16.5439 6.45715 12.9607 8.65682 9.69658C11.4068 5.61588 16.0446 4.94539 16.0446 4.94539Z" fill="#F5F5F5"/>
</svg>
