<svg width="42" height="42" viewBox="0 0 42 42" fill="none" xmlns="http://www.w3.org/2000/svg">
<path d="M16.8438 31C26.2839 31 31.4457 23.3037 31.4457 16.6335C31.4457 16.4136 31.4457 16.1937 31.4351 15.9843C32.4355 15.2723 33.3082 14.3822 34 13.3665C33.0847 13.7644 32.0949 14.0366 31.0519 14.1623C32.1162 13.534 32.9251 12.5497 33.3082 11.3665C32.3184 11.9424 31.2222 12.3613 30.0515 12.5916C29.1149 11.6073 27.7846 11 26.3052 11C23.4742 11 21.1754 13.2618 21.1754 16.0471C21.1754 16.445 21.218 16.8325 21.3138 17.199C17.046 16.9895 13.2678 14.9791 10.7348 11.9215C10.2984 12.6649 10.043 13.534 10.043 14.4555C10.043 16.2042 10.9476 17.7539 12.3312 18.6545C11.4904 18.6335 10.7029 18.4031 10.0111 18.0262C10.0111 18.0471 10.0111 18.0681 10.0111 18.089C10.0111 20.5393 11.7778 22.5707 14.1298 23.0419C13.7041 23.1571 13.2465 23.2199 12.7782 23.2199C12.4483 23.2199 12.129 23.1885 11.8097 23.1257C12.4589 25.1361 14.3533 26.5916 16.599 26.6335C14.8429 27.9843 12.6292 28.7906 10.2239 28.7906C9.80885 28.7906 9.40443 28.7696 9 28.7173C11.2456 30.1623 13.9489 31 16.8438 31Z" fill="white"/>
<circle cx="21" cy="21" r="20.5" stroke="white"/>
</svg>
